<?xml version="1.0" encoding="utf-8"?>
<!-- Generator: Adobe Illustrator 27.5.0, SVG Export Plug-In . SVG Version: 6.00 Build 0)  -->
<svg version="1.1" xmlns="http://www.w3.org/2000/svg" xmlns:xlink="http://www.w3.org/1999/xlink" x="0px" y="0px"
	 viewBox="0 0 750 500" style="enable-background:new 0 0 750 500;" xml:space="preserve">
<g id="BACKGROUND">
	<g>
		<g>
			<rect style="fill:#7E89FD;" width="750" height="500"/>
		</g>
	</g>
</g>
<g id="OBJECTS">
	<g>
		<g>
			<g>
				<path style="fill:none;stroke:#DEE3FC;stroke-width:0.7896;stroke-miterlimit:10;" d="M269.883,163.971v-10.25
					c0-1.003-0.813-1.815-1.815-1.815h-2.638c-0.772,0-1.456-0.525-1.629-1.278c-0.913-3.98-2.468-7.715-4.566-11.081
					c-0.419-0.672-0.339-1.538,0.22-2.098l1.855-1.855c0.709-0.709,0.709-1.858,0-2.567l-7.247-7.247
					c-0.709-0.709-1.858-0.709-2.567,0l-1.853,1.853c-0.56,0.56-1.426,0.639-2.098,0.22c-3.366-2.099-7.102-3.656-11.084-4.571
					c-0.753-0.173-1.277-0.856-1.277-1.628v-2.63c0-1.003-0.813-1.815-1.815-1.815h-10.25c-1.003,0-1.815,0.813-1.815,1.815v2.63
					c0,0.772-0.525,1.456-1.278,1.629c-3.982,0.914-7.719,2.471-11.085,4.57c-0.672,0.419-1.538,0.34-2.098-0.22l-1.851-1.851
					c-0.709-0.709-1.858-0.709-2.567,0l-7.247,7.247c-0.709,0.709-0.709,1.858,0,2.567l1.853,1.853
					c0.56,0.56,0.639,1.426,0.22,2.098c-2.098,3.367-3.653,7.103-4.567,11.083c-0.173,0.753-0.856,1.278-1.629,1.278h-2.635
					c-1.003,0-1.815,0.813-1.815,1.815v10.25c0,1.003,0.813,1.815,1.815,1.815h2.636c0.772,0,1.456,0.525,1.628,1.277
					c0.915,3.981,2.471,7.717,4.568,11.081c0.419,0.672,0.34,1.538-0.22,2.098l-1.856,1.856c-0.709,0.709-0.709,1.858,0,2.567
					l7.247,7.248c0.709,0.709,1.859,0.709,2.567,0l1.857-1.857c0.56-0.56,1.426-0.639,2.097-0.221
					c3.365,2.096,7.099,3.649,11.08,4.563c0.753,0.173,1.278,0.856,1.278,1.629v2.644c0,1.003,0.813,1.815,1.815,1.815h10.25
					c1.003,0,1.815-0.813,1.815-1.815v-2.644c0-0.773,0.525-1.456,1.278-1.629c3.98-0.913,7.714-2.467,11.078-4.563
					c0.672-0.418,1.538-0.339,2.097,0.221l1.858,1.858c0.709,0.709,1.859,0.709,2.567,0l7.247-7.248
					c0.709-0.709,0.709-1.859,0-2.567l-1.857-1.856c-0.56-0.56-0.639-1.426-0.22-2.098c2.097-3.365,3.652-7.099,4.566-11.08
					c0.173-0.753,0.856-1.278,1.629-1.278h2.64C269.07,165.786,269.883,164.973,269.883,163.971z M228.241,187.745
					c-15.961,0-28.882-12.947-28.882-28.908c0-15.937,12.921-28.883,28.882-28.883c15.962,0,28.883,12.947,28.883,28.883
					C257.124,174.799,244.203,187.745,228.241,187.745z"/>
				<path style="fill:#DEE3FC;" d="M317.024,198.667v-6.985c0-0.683-0.554-1.237-1.237-1.237h-1.798
					c-0.527,0-0.992-0.358-1.11-0.871c-0.622-2.712-1.682-5.258-3.112-7.552c-0.285-0.458-0.231-1.048,0.15-1.429l1.264-1.264
					c0.483-0.483,0.483-1.266,0-1.75l-4.939-4.939c-0.483-0.483-1.266-0.483-1.75,0l-1.263,1.263
					c-0.382,0.382-0.972,0.435-1.43,0.15c-2.294-1.431-4.84-2.492-7.553-3.115c-0.513-0.118-0.87-0.583-0.87-1.11v-1.792
					c0-0.683-0.554-1.237-1.237-1.237h-6.985c-0.683,0-1.237,0.554-1.237,1.237v1.792c0,0.526-0.358,0.992-0.871,1.11
					c-2.714,0.623-5.261,1.684-7.555,3.114c-0.458,0.285-1.048,0.231-1.43-0.15l-1.261-1.261c-0.483-0.483-1.266-0.483-1.75,0
					l-4.939,4.939c-0.483,0.483-0.483,1.266,0,1.75l1.263,1.263c0.381,0.381,0.435,0.972,0.15,1.43
					c-1.43,2.294-2.49,4.841-3.112,7.553c-0.118,0.513-0.583,0.871-1.11,0.871h-1.796c-0.683,0-1.237,0.554-1.237,1.237v6.985
					c0,0.683,0.554,1.237,1.237,1.237h1.797c0.526,0,0.992,0.358,1.11,0.871c0.623,2.713,1.684,5.259,3.113,7.552
					c0.285,0.458,0.231,1.048-0.15,1.43l-1.264,1.265c-0.483,0.483-0.483,1.266,0,1.749l4.939,4.939c0.483,0.483,1.267,0.483,1.75,0
					l1.266-1.266c0.381-0.381,0.972-0.436,1.429-0.15c2.293,1.428,4.838,2.487,7.551,3.109c0.513,0.118,0.871,0.583,0.871,1.11
					v1.802c0,0.683,0.554,1.237,1.237,1.237h6.985c0.683,0,1.237-0.554,1.237-1.237v-1.802c0-0.527,0.358-0.992,0.871-1.11
					c2.712-0.622,5.257-1.681,7.55-3.109c0.458-0.285,1.048-0.231,1.429,0.15l1.266,1.267c0.483,0.483,1.267,0.483,1.75,0
					l4.939-4.939c0.483-0.483,0.483-1.267,0-1.75l-1.266-1.265c-0.382-0.381-0.436-0.972-0.15-1.43
					c1.429-2.293,2.489-4.838,3.112-7.551c0.118-0.513,0.583-0.871,1.11-0.871h1.799
					C316.47,199.905,317.024,199.351,317.024,198.667z M288.646,213.759c-10.263,0-18.572-8.325-18.572-18.589
					c0-10.248,8.309-18.573,18.572-18.573c10.264,0,18.573,8.325,18.573,18.573C307.219,205.434,298.91,213.759,288.646,213.759z"/>
			</g>
			<g>
				<circle style="fill:#A4AFFF;" cx="185.49" cy="380.229" r="3.386"/>
				<circle style="fill:#A4AFFF;" cx="639.122" cy="287.708" r="3.386"/>
				<circle style="fill:#A4AFFF;" cx="632.35" cy="166.799" r="3.386"/>
				<circle style="fill:#A4AFFF;" cx="510.606" cy="125.703" r="2.124"/>
				<path style="fill:#A4AFFF;" d="M198.746,97.41c0,1.173-0.951,2.124-2.124,2.124c-1.173,0-2.124-0.951-2.124-2.124
					c0-1.173,0.951-2.124,2.124-2.124C197.795,95.286,198.746,96.237,198.746,97.41z"/>
				<path style="fill:#A4AFFF;" d="M245.756,228.206c0,1.173-0.951,2.124-2.124,2.124c-1.173,0-2.124-0.951-2.124-2.124
					c0-1.173,0.951-2.124,2.124-2.124C244.805,226.082,245.756,227.033,245.756,228.206z"/>
				<path style="fill:#A4AFFF;" d="M167.835,383.616c0,1.173-0.951,2.124-2.124,2.124c-1.173,0-2.124-0.951-2.124-2.124
					c0-1.173,0.951-2.124,2.124-2.124C166.884,381.492,167.835,382.443,167.835,383.616z"/>
				<circle style="fill:#A4AFFF;" cx="589.451" cy="382.23" r="3.386"/>
				<circle style="fill:#A4AFFF;" cx="661.451" cy="382.23" r="3.386"/>
				<circle style="fill:#A4AFFF;" cx="257.124" cy="88.177" r="3.386"/>
				<path style="fill:#A4AFFF;" d="M490.75,242.236c0,2.502-2.029,4.531-4.531,4.531s-4.531-2.028-4.531-4.531
					s2.028-4.531,4.531-4.531S490.75,239.734,490.75,242.236z"/>
				<path style="fill:#A4AFFF;" d="M156.583,186.21c0,2.502-2.028,4.531-4.531,4.531c-2.502,0-4.531-2.029-4.531-4.531
					s2.028-4.531,4.531-4.531C154.555,181.68,156.583,183.708,156.583,186.21z"/>
			</g>
			<g>
				<path style="fill:#FFFFFF;" d="M143.835,118.58h-5.698c-0.367,0-0.664-0.297-0.664-0.664v-5.697
					c0-0.367,0.297-0.664,0.664-0.664h5.698c0.367,0,0.664,0.297,0.664,0.664v5.697C144.499,118.283,144.202,118.58,143.835,118.58z
					"/>
				<path style="fill:#FFFFFF;" d="M153.233,118.58h-5.698c-0.367,0-0.664-0.297-0.664-0.664v-5.697
					c0-0.367,0.297-0.664,0.664-0.664h5.698c0.367,0,0.664,0.297,0.664,0.664v5.697C153.897,118.283,153.6,118.58,153.233,118.58z"
					/>
				<path style="fill:#FFFFFF;" d="M162.631,118.58h-5.697c-0.367,0-0.664-0.297-0.664-0.664v-5.697
					c0-0.367,0.297-0.664,0.664-0.664h5.697c0.367,0,0.664,0.297,0.664,0.664v5.697C163.295,118.283,162.998,118.58,162.631,118.58z
					"/>
			</g>
			<g>
				<g>
					<path style="fill:#DEE3FC;" d="M622.414,365.313h-5.698c-0.367,0-0.664-0.297-0.664-0.664v-5.697
						c0-0.367,0.297-0.664,0.664-0.664h5.698c0.367,0,0.664,0.297,0.664,0.664v5.697
						C623.078,365.016,622.781,365.313,622.414,365.313z"/>
					<path style="fill:#DEE3FC;" d="M631.812,365.313h-5.698c-0.367,0-0.664-0.297-0.664-0.664v-5.697
						c0-0.367,0.297-0.664,0.664-0.664h5.698c0.367,0,0.664,0.297,0.664,0.664v5.697
						C632.476,365.016,632.179,365.313,631.812,365.313z"/>
					<path style="fill:#DEE3FC;" d="M641.21,365.313h-5.698c-0.367,0-0.664-0.297-0.664-0.664v-5.697
						c0-0.367,0.297-0.664,0.664-0.664h5.698c0.367,0,0.664,0.297,0.664,0.664v5.697
						C641.874,365.016,641.577,365.313,641.21,365.313z"/>
				</g>
			</g>
			<g>
				<g>
					<path style="fill:#DEE3FC;" d="M187.949,361.463h-5.698c-0.367,0-0.664-0.297-0.664-0.664v-5.697
						c0-0.367,0.297-0.664,0.664-0.664h5.698c0.367,0,0.664,0.297,0.664,0.664v5.697
						C188.613,361.165,188.315,361.463,187.949,361.463z"/>
					<path style="fill:#DEE3FC;" d="M197.346,361.463h-5.698c-0.367,0-0.664-0.297-0.664-0.664v-5.697
						c0-0.367,0.297-0.664,0.664-0.664h5.698c0.367,0,0.664,0.297,0.664,0.664v5.697
						C198.01,361.165,197.713,361.463,197.346,361.463z"/>
					<path style="fill:#DEE3FC;" d="M206.744,361.463h-5.697c-0.367,0-0.664-0.297-0.664-0.664v-5.697
						c0-0.367,0.297-0.664,0.664-0.664h5.697c0.367,0,0.664,0.297,0.664,0.664v5.697
						C207.408,361.165,207.111,361.463,206.744,361.463z"/>
				</g>
			</g>
		</g>
		<g>
			<g>
				<path style="fill:#3945BA;" d="M442.651,421.849H307.349c-11.791,0-21.349-9.558-21.349-21.349V99.338
					c0-11.791,9.558-21.349,21.349-21.349h135.302c11.791,0,21.349,9.558,21.349,21.349V400.5
					C464,412.291,454.442,421.849,442.651,421.849z"/>
				<path style="fill:#FFFFFF;" d="M441.967,416.962H308.033c-10.328,0-18.7-8.372-18.7-18.7V99.7c0-10.328,8.372-18.7,18.7-18.7
					h133.935c10.328,0,18.7,8.372,18.7,18.7v298.562C460.667,408.59,452.295,416.962,441.967,416.962z"/>
				<path style="fill:#DEE3FC;" d="M453.167,99.114v298.215c0,6.994-5.67,12.664-12.664,12.664H309.497
					c-6.994,0-12.664-5.67-12.664-12.664V99.114c0-6.994,5.67-12.664,12.664-12.664h21.846c1.212,0,2.321,0.685,2.864,1.769
					l2.32,4.631c1.057,2.137,3.239,3.475,5.612,3.475h65.722c2.373,0,4.555-1.338,5.612-3.475l2.32-4.631
					c0.543-1.084,1.651-1.769,2.864-1.769h21.846C447.497,86.45,453.167,92.119,453.167,99.114z"/>
				<path style="fill:#DEE3FC;" d="M402.581,90.907h-52.934c-1.231,0-2.229-0.998-2.229-2.229l0,0c0-1.231,0.998-2.229,2.229-2.229
					h52.934c1.231,0,2.229,0.998,2.229,2.229l0,0C404.81,89.909,403.812,90.907,402.581,90.907z"/>
			</g>
			
				<path style="fill:none;stroke:#698BD1;stroke-linecap:round;stroke-linejoin:round;stroke-miterlimit:10;stroke-dasharray:2.837;" d="
				M432.371,399.642H314.579c-4.628,0-8.379-3.751-8.379-8.379v-41.592c0-4.628,3.751-8.379,8.379-8.379h117.792
				c4.628,0,8.379,3.751,8.379,8.379v41.592C440.75,395.891,436.999,399.642,432.371,399.642z"/>
			
				<path style="fill:none;stroke:#698BD1;stroke-linecap:round;stroke-linejoin:round;stroke-miterlimit:10;stroke-dasharray:2.837;" d="
				M426.401,256.456h-58.433c-3.338,0-6.044-2.706-6.044-6.044v-28.88c0-3.338,2.706-6.044,6.044-6.044h58.433
				c3.338,0,6.044,2.706,6.044,6.044v28.88C432.445,253.75,429.739,256.456,426.401,256.456z"/>
			<g>
				<path style="fill:#4B5A9B;" d="M438.981,331.586H318.299c-3.977,0-7.201-3.224-7.201-7.201v-50.901
					c0-3.977,3.224-7.201,7.201-7.201h120.682c3.977,0,7.201,3.224,7.201,7.201v50.901
					C446.182,328.362,442.958,331.586,438.981,331.586z"/>
				<path style="fill:#7F95F4;" d="M440.75,268.19v50.93c0,3.97-3.22,7.18-7.19,7.18H313.39c-3.97,0-7.19-3.21-7.19-7.18v-50.93
					c0-3.97,3.22-7.19,7.19-7.19h120.17C437.53,261,440.75,264.22,440.75,268.19z"/>
				<path style="fill:#FFFFFF;" d="M352.68,320.993h-35.403c-2.685,0-4.861-2.176-4.861-4.861v-35.403
					c0-2.684,2.176-4.861,4.861-4.861h35.403c2.685,0,4.861,2.176,4.861,4.861v35.403
					C357.541,318.817,355.365,320.993,352.68,320.993z"/>
				<g>
					<path style="fill:#B2C1F9;" d="M394.638,281.578h-31.179c-0.848,0-1.535-0.687-1.535-1.535l0,0
						c0-0.848,0.687-1.535,1.535-1.535h31.179c0.848,0,1.535,0.687,1.535,1.535l0,0
						C396.174,280.891,395.486,281.578,394.638,281.578z"/>
					<path style="fill:#B2C1F9;" d="M380.43,287.708h-16.971c-0.848,0-1.535-0.687-1.535-1.535l0,0c0-0.848,0.687-1.535,1.535-1.535
						h16.971c0.848,0,1.535,0.687,1.535,1.535l0,0C381.965,287.02,381.278,287.708,380.43,287.708z"/>
					<path style="fill:#B2C1F9;" d="M432.598,287.708h-45.922c-0.848,0-1.535-0.687-1.535-1.535l0,0
						c0-0.848,0.687-1.535,1.535-1.535h45.922c0.848,0,1.535,0.687,1.535,1.535l0,0C434.133,287.02,433.445,287.708,432.598,287.708
						z"/>
					<path style="fill:#B2C1F9;" d="M389.717,293.837h-26.257c-0.848,0-1.535-0.687-1.535-1.535l0,0
						c0-0.848,0.687-1.535,1.535-1.535h26.257c0.848,0,1.535,0.687,1.535,1.535l0,0C391.252,293.15,390.564,293.837,389.717,293.837
						z"/>
					<path style="fill:#B2C1F9;" d="M412.005,293.837h-16.507c-0.848,0-1.535-0.687-1.535-1.535l0,0
						c0-0.848,0.687-1.535,1.535-1.535h16.507c0.848,0,1.535,0.687,1.535,1.535l0,0C413.54,293.15,412.852,293.837,412.005,293.837z
						"/>
					<path style="fill:#B2C1F9;" d="M432.598,293.837h-15.201c-0.848,0-1.535-0.687-1.535-1.535l0,0
						c0-0.848,0.687-1.535,1.535-1.535h15.201c0.848,0,1.535,0.687,1.535,1.535l0,0C434.133,293.15,433.445,293.837,432.598,293.837
						z"/>
					<path style="fill:#B2C1F9;" d="M432.598,299.966h-69.139c-0.848,0-1.535-0.687-1.535-1.535l0,0
						c0-0.848,0.687-1.535,1.535-1.535h69.139c0.848,0,1.535,0.687,1.535,1.535l0,0
						C434.133,299.279,433.445,299.966,432.598,299.966z"/>
					<path style="fill:#B2C1F9;" d="M401.511,306.095h-38.051c-0.848,0-1.535-0.687-1.535-1.535l0,0
						c0-0.848,0.687-1.535,1.535-1.535h38.051c0.848,0,1.535,0.687,1.535,1.535l0,0
						C403.046,305.408,402.358,306.095,401.511,306.095z"/>
					<path style="fill:#B2C1F9;" d="M432.598,306.095h-24.952c-0.848,0-1.535-0.687-1.535-1.535l0,0
						c0-0.848,0.687-1.535,1.535-1.535h24.952c0.848,0,1.535,0.687,1.535,1.535l0,0
						C434.133,305.408,433.445,306.095,432.598,306.095z"/>
					<path style="fill:#B2C1F9;" d="M385.816,312.224h-22.357c-0.848,0-1.535-0.687-1.535-1.535l0,0
						c0-0.848,0.687-1.535,1.535-1.535h22.357c0.848,0,1.535,0.687,1.535,1.535l0,0
						C387.351,311.537,386.664,312.224,385.816,312.224z"/>
					<path style="fill:#B2C1F9;" d="M414.224,312.224h-22.357c-0.848,0-1.535-0.687-1.535-1.535l0,0
						c0-0.848,0.687-1.535,1.535-1.535h22.357c0.848,0,1.535,0.687,1.535,1.535l0,0
						C415.759,311.537,415.072,312.224,414.224,312.224z"/>
					<path style="fill:#B2C1F9;" d="M432.598,312.224h-12.973c-0.848,0-1.535-0.687-1.535-1.535l0,0
						c0-0.848,0.687-1.535,1.535-1.535h12.973c0.848,0,1.535,0.687,1.535,1.535l0,0
						C434.133,311.537,433.445,312.224,432.598,312.224z"/>
					<path style="fill:#B2C1F9;" d="M394.638,318.354h-31.179c-0.848,0-1.535-0.687-1.535-1.535l0,0
						c0-0.848,0.687-1.535,1.535-1.535h31.179c0.848,0,1.535,0.687,1.535,1.535l0,0
						C396.174,317.666,395.486,318.354,394.638,318.354z"/>
					<path style="fill:#B2C1F9;" d="M432.598,281.578h-31.179c-0.848,0-1.535-0.687-1.535-1.535l0,0
						c0-0.848,0.687-1.535,1.535-1.535h31.179c0.848,0,1.535,0.687,1.535,1.535l0,0
						C434.133,280.891,433.445,281.578,432.598,281.578z"/>
				</g>
				<g>
					<path style="fill:#3052CE;" d="M440.75,268.19v2.14H306.2v-2.14c0-3.97,3.22-7.19,7.19-7.19h120.17
						C437.53,261,440.75,264.22,440.75,268.19z"/>
					<g>
						<path style="fill:#DEE3FC;" d="M415.389,265.833c0,0.921-0.746,1.667-1.667,1.667s-1.667-0.746-1.667-1.667
							c0-0.92,0.746-1.667,1.667-1.667S415.389,264.913,415.389,265.833z"/>
						<path style="fill:#DEE3FC;" d="M423.917,265.833c0,0.921-0.746,1.667-1.667,1.667s-1.667-0.746-1.667-1.667
							c0-0.92,0.746-1.667,1.667-1.667S423.917,264.913,423.917,265.833z"/>
						<path style="fill:#DEE3FC;" d="M432.445,265.833c0,0.921-0.746,1.667-1.667,1.667c-0.921,0-1.667-0.746-1.667-1.667
							c0-0.92,0.746-1.667,1.667-1.667C431.698,264.167,432.445,264.913,432.445,265.833z"/>
					</g>
				</g>
			</g>
			<g>
				<path style="fill:none;stroke:#495AD6;stroke-width:0.8956;stroke-miterlimit:10;" d="M347.857,256.456h-26.629
					c-3.949,0-7.151-3.202-7.151-7.151v-26.629c0-3.949,3.202-7.151,7.151-7.151h26.629c3.949,0,7.151,3.201,7.151,7.151v26.629
					C355.007,253.255,351.806,256.456,347.857,256.456z"/>
				<g>
					
						<polyline style="fill:none;stroke:#495AD6;stroke-width:1.6716;stroke-linecap:round;stroke-linejoin:round;stroke-miterlimit:10;" points="
						328.157,230.071 322.26,235.968 328.204,241.911 					"/>
					
						<polyline style="fill:none;stroke:#495AD6;stroke-width:1.6716;stroke-linecap:round;stroke-linejoin:round;stroke-miterlimit:10;" points="
						340.926,230.071 346.823,235.968 340.88,241.911 					"/>
					
						<line style="fill:none;stroke:#495AD6;stroke-width:1.6716;stroke-linecap:round;stroke-linejoin:round;stroke-miterlimit:10;" x1="337.303" y1="230.071" x2="331.781" y2="241.911"/>
				</g>
			</g>
			<g>
				<path style="fill:#B2C1F9;" d="M440.75,115.62v83.27c0,4.52-3.66,8.18-8.18,8.18H314.38c-4.51,0-8.18-3.66-8.18-8.18v-83.27
					c0-4.52,3.67-8.18,8.18-8.18h118.19C437.09,107.44,440.75,111.1,440.75,115.62z"/>
				<circle style="fill:#F0F4FF;" cx="413.5" cy="133.75" r="19.5"/>
				<path style="fill:#FFFFFF;" d="M385.29,207.07h-70.91c-4.51,0-8.18-3.66-8.18-8.18v-13.11l31.03-53.75
					c1.62-2.81,5.68-2.81,7.3,0l23.43,40.58l17.4,30.14C386.2,204.19,386.07,205.83,385.29,207.07z"/>
				<path style="fill:#F0F4FF;" d="M415.87,207.07h-67.81l19.9-34.46l10.72-18.57c1.46-2.53,5.11-2.53,6.57,0L415.87,207.07z"/>
			</g>
		</g>
		<g>
			<g>
				<rect x="498.092" y="361.8" style="fill:#3B47BC;" width="52.276" height="78.563"/>
				
					<rect x="550.369" y="361.8" transform="matrix(-1 -1.224647e-16 1.224647e-16 -1 1120.7537 802.1635)" style="fill:#495AD6;" width="20.016" height="78.563"/>
				<g>
					<rect x="553.234" y="364.817" style="fill:#B2C1F9;" width="14.696" height="2.507"/>
					<rect x="553.234" y="370.204" style="fill:#B2C1F9;" width="14.696" height="2.507"/>
					<rect x="553.234" y="375.59" style="fill:#B2C1F9;" width="14.696" height="2.507"/>
					<rect x="553.234" y="380.976" style="fill:#B2C1F9;" width="14.696" height="2.507"/>
					<rect x="553.234" y="386.362" style="fill:#B2C1F9;" width="14.696" height="2.507"/>
					<rect x="553.234" y="391.749" style="fill:#B2C1F9;" width="14.696" height="2.507"/>
					<rect x="553.234" y="397.135" style="fill:#B2C1F9;" width="14.696" height="2.507"/>
					<rect x="553.234" y="402.521" style="fill:#B2C1F9;" width="14.696" height="2.507"/>
					<rect x="553.234" y="407.907" style="fill:#B2C1F9;" width="14.696" height="2.507"/>
					<rect x="553.234" y="413.294" style="fill:#B2C1F9;" width="14.696" height="2.507"/>
					<rect x="553.234" y="418.68" style="fill:#B2C1F9;" width="14.696" height="2.507"/>
					<rect x="553.234" y="424.066" style="fill:#B2C1F9;" width="14.696" height="2.507"/>
					<rect x="553.234" y="429.453" style="fill:#B2C1F9;" width="14.696" height="2.507"/>
					<rect x="553.234" y="434.839" style="fill:#B2C1F9;" width="14.696" height="2.507"/>
				</g>
			</g>
			<g>
				<path style="fill:#281616;" d="M489.6,440.363h26.568c0,0,1.485-4.731-1.733-10.592c0,0-2.139,1.715-8.544,0.555
					c0,0-2.673,2.27-4.519,3.157C499.516,434.382,488.884,436.47,489.6,440.363z"/>
				<path style="fill:#002C54;" d="M491.453,365.448c1.716,10.239,9.634,44.88,13.038,65.345c6.221,0.53,9.209-0.184,10.792-0.549
					c-0.31-7.136-0.924-24.205-0.852-31.691c0.118-12.651,0.712-29.334-4.857-38.49l-18.726,1.474
					c0.114,0.989,0.217,1.793,0.309,2.368C491.247,364.457,491.35,364.966,491.453,365.448z"/>
				<path style="fill:#281616;" d="M441.544,440.363h26.568c0,0,1.485-4.731-1.733-10.592c0,0-2.139,1.715-8.544,0.555
					c0,0-2.673,2.27-4.519,3.157C451.46,434.382,440.828,436.47,441.544,440.363z"/>
				<path style="fill:#052635;" d="M457.066,430.194c5.077,1.257,8.754,1.134,10.495,0.938c1.413-8.225,3.644-26.325,5.653-34.808
					c3.116-13.186,6.166-31.321,4.047-37.791l-18.42-4.626C458.779,354.49,457.279,409.992,457.066,430.194z"/>
				<path style="fill:#052635;" d="M530.378,335.025L530.378,335.025c-0.37-3.64-0.796-6.299-0.796-6.299l-20.58,5.037
					l-17.482,3.983c-6.481,1.444-14.31,3.182-21.212,4.742c-7.745,1.76-12.887,7.643-11.191,15.399l1.941,9.407
					c10.833-0.148,61.766-5.03,66.122-7.23C532.102,357.578,533.583,348.79,530.378,335.025z"/>
				<path style="fill:#002C54;" d="M561.1,335.025L561.1,335.025c-0.37-3.64-2.145-7.546-2.145-7.546l-19.231,6.284l-17.482,3.983
					c-6.481,1.444-14.31,3.182-21.212,4.742c-7.745,1.76-12.887,7.643-11.191,15.399l1.941,9.407
					c10.833-0.148,56.111-1.726,66.122-7.23C562.733,357.407,564.305,348.79,561.1,335.025z"/>
				<g>
					<path style="fill:#E5918F;" d="M503.497,305.53c0,0,9.141-4.129,11.657,0.012c1.377,2.267,0.425,6.478-2.693,8.246
						c-3.118,1.768-20.735,9.219-37.362,13.374c0,0-0.711-2.313-1.855-4.743c0,0,7.459-3.094,14.875-8.302
						C495.534,308.908,503.497,305.53,503.497,305.53L503.497,305.53z"/>
				</g>
				<path style="fill:#E5918F;" d="M505.782,276.985l-7.834,31.291c0,0,0.81,7.911,8.799,4.028
					c7.989-3.883,13.283-28.812,13.283-28.812L505.782,276.985z"/>
				<path style="fill:#FFFFFF;" d="M519.036,294.486c-0.969-0.234-1.894-0.49-2.786-0.758c-0.914-0.267-1.783-0.546-2.608-0.836
					c-7.444-2.552-11.467-5.617-11.467-5.617c2.34-10.174,5.16-17.006,7.667-21.508c0.067-0.111,0.134-0.212,0.19-0.334
					c0.067-0.111,0.134-0.223,0.201-0.334c1.348-2.24,3.287-4.123,5.449-5.672c0.223-0.156,0.435-0.301,0.658-0.457l0.925,16.337
					l0.156,1.683L519.036,294.486z"/>
				<path style="fill:#C7E5F2;" d="M519.036,294.486c-0.969-0.234-1.894-0.49-2.786-0.758c-0.914-0.267-1.783-0.546-2.608-0.836
					c1.563-11.005,2.976-17.919,2.976-17.919l0.802,2.017L519.036,294.486z"/>
				<path style="fill:#FFFFFF;" d="M565.284,266.236c-0.189,4.837-1.036,12.604-1.772,20.405c-0.234,2.474-0.457,4.959-0.646,7.355
					c-0.134,1.493-2.385,9.461-2.474,10.888c-0.401,6.82-3.744,11.924-0.579,22.31c0.758,2.485,0.947,3.767,0.947,4.792
					c0,0.713-0.925,1.46-1.293,1.66c-1.326,0.769-3.934,1.304-7.099,1.694h-0.011c-6.229,0.758-14.632,0.903-19.703,0.903
					c-6.809,0-17.028-1.081-18.321-2.797c-1.181-1.571-0.089-3.856,0.468-7.01c2.507-14.231,1.616-21.653,1.46-31.927
					c0-0.256-0.011-0.513-0.011-0.78c-0.256-15.847-1.304-29.409-0.568-34.301c0.223-0.156,0.435-0.301,0.658-0.457
					c1.081-0.736,2.14-1.393,3.165-1.973c0.089-0.045,0.201-0.111,0.312-0.178c0.312-0.178,0.635-0.345,0.936-0.513
					c0.111-0.067,0.234-0.123,0.357-0.178c2.307-1.126,5.672-2.329,7.6-2.998c0.245-0.078,0.468-0.156,0.657-0.212
					c1.817-0.111,3.789-0.134,5.918-0.078c1.85,0.056,4.68,0.301,7.756,0.702c0.011,0,0.011,0,0.011,0
					c3.477,0.446,7.277,1.103,10.297,1.928c0,0,0.033,0.011,0.056,0.022c0.568,0.178,4.257,1.56,8.102,5.672
					C562.787,262.525,564.102,264.196,565.284,266.236z"/>
				<path style="fill:#C7E5F2;" d="M559.812,327.193c0.758,2.485,0.947,3.767,0.947,4.792c0,0.713-0.925,1.46-1.293,1.66
					c-1.326,0.769-3.934,1.304-7.099,1.694c1.304-0.156,3.555-2.225,3.555-4.09c0-1.306-1.694-10.13-1.226-15.824
					c0.468-5.683,1.393-14.732-0.368-21.976c-1.772-7.244-3.432-16.772-3.432-16.772l9.929,5.995c0,0,1.282,1.794,2.686,3.967
					c-0.234,2.474-0.457,4.959-0.646,7.355C562.732,295.488,556.647,316.807,559.812,327.193z"/>
				<g>
					<path style="fill:#002C54;" d="M516.13,224.354c0,0,0.859,10.385,4.303,11.083c3.443,0.698,2.598-3.715,2.598-3.715
						l-0.481-4.931L516.13,224.354z"/>
					<path style="fill:#E5918F;" d="M532.008,261.99c-6.742-0.802-4.224-7.355-3.299-8.859c0.245-0.078,1.404-0.435,1.493-0.49
						c0.011-0.011,0.022-0.011,0.022-0.011c0.223-0.178,0.39-0.446,0.524-0.78c0.657-1.727,0.357-5.171,0.334-5.394
						c0-0.011,0-0.011,0-0.011v-0.624c0.111-0.412,0.223-0.802,0.312-1.17l3.544-2.786l7.5-5.895c0,0-1.995,9.862-0.39,16.081
						c0.123,0.468,0.368,1.126,0.992,1.493c0,0.011,0.011,0,0.011,0c0.201,0.134,0.446,0.223,0.747,0.267
						C545.637,254.679,543.074,263.305,532.008,261.99z"/>
					<path style="fill:#CC6362;" d="M537.95,242.236c0,0-0.063,6.582-7.207,9.609c0.664-1.718,0.358-5.163,0.337-5.385l2.993-2.35
						L537.95,242.236z"/>
					<path style="fill:#E5918F;" d="M517.776,225.832c0,0,1.558,21.547,7.376,23.378c0,0,7.413,0.698,12.735-6.461
						c1.533-2.062,3.471-2.526,4.104-5.017c1.028-4.046,2.478-11.508,0.628-16.005C539.985,215.322,518.026,210.237,517.776,225.832
						z"/>
					<path style="fill:#002C54;" d="M542.708,218.171c-0.096-3.914-4.057-5.377-4.057-5.377c-3.944-1.846-12.14-1.049-20.59,0.836
						c-1.981,0.442-4.467-0.774-5.851,0.186c-1.672,1.16-0.007,6.46-0.007,6.46c3.259,9.871,15.253,6.661,18.858,5.443
						c0.857,2.541,0.746,6.075,2.883,7.897c1.218,1.038,3.334,1.068,5.486,0.709c0.265,0.504,1.26,0.947,1.462,1.639
						c0.678,2.308,0.581,5.915,0.56,8.699l1.017-0.497C542.602,243.413,553.122,218.494,542.708,218.171z"/>
					<g>
						<path style="fill:none;stroke:#FFFFFF;stroke-width:0.501;stroke-miterlimit:10;" d="M523.744,233.089
							c0.304,1.789-0.578,3.432-1.971,3.669c-1.393,0.237-2.769-1.021-3.073-2.811c-0.304-1.789,0.578-3.432,1.971-3.669
							C522.064,230.041,523.44,231.299,523.744,233.089z"/>
						<path style="fill:none;stroke:#FFFFFF;stroke-width:0.501;stroke-miterlimit:10;" d="M530.774,231.775
							c0.304,1.789-0.578,3.432-1.971,3.669c-1.393,0.237-2.769-1.021-3.073-2.811c-0.304-1.789,0.578-3.432,1.971-3.669
							C529.094,228.727,530.47,229.986,530.774,231.775z"/>
						<path style="fill:none;stroke:#FFFFFF;stroke-width:0.501;stroke-miterlimit:10;" d="M523.744,233.089
							c0,0,0.308-0.5,1.927-0.36"/>
						
							<line style="fill:none;stroke:#FFFFFF;stroke-width:0.501;stroke-miterlimit:10;" x1="530.835" y1="232.204" x2="536.844" y2="231.244"/>
					</g>
					<g>
						<path style="fill:#E5918F;" d="M537.286,238.872c4.138,1.586,5.431-8.601,1.501-9.052c-2.98-0.342-3.102,3.816-3.102,3.816
							S534.923,237.967,537.286,238.872z"/>
					</g>
					<g style="opacity:0.5;">
						<g>
							<path style="fill:#CC6362;" d="M538.651,231.355c0,0-0.268,0.275-0.513,0.73c-0.247,0.453-0.465,1.073-0.505,1.737
								c-0.039,0.329-0.03,0.667-0.015,0.988c0.011,0.323,0.05,0.626,0.072,0.895c0.029,0.271,0.053,0.498,0.069,0.656
								c0.016,0.162,0.016,0.26,0.016,0.26s-0.06-0.074-0.148-0.211c-0.076-0.142-0.233-0.331-0.338-0.593
								c-0.116-0.258-0.238-0.569-0.303-0.924c-0.081-0.351-0.103-0.743-0.073-1.136c0.037-0.392,0.139-0.784,0.305-1.119
								c0.158-0.34,0.386-0.613,0.599-0.812C538.263,231.43,538.651,231.355,538.651,231.355z"/>
						</g>
						<g>
							<path style="fill:#CC6362;" d="M539.297,233.289c0,0-0.169,0.018-0.401,0.106c-0.232,0.082-0.518,0.245-0.734,0.465
								c-0.221,0.216-0.363,0.482-0.434,0.691c-0.076,0.206-0.1,0.352-0.1,0.352l-0.682-0.244c0,0,0.08-0.174,0.247-0.404
								c0.161-0.232,0.431-0.51,0.754-0.686c0.319-0.183,0.668-0.266,0.925-0.284C539.129,233.26,539.297,233.289,539.297,233.289z"
								/>
						</g>
					</g>
				</g>
				<path style="fill:#E5918F;" d="M577.076,309.654c0,0,0,0-0.001,0.01c-1.819,2.11-8.721,3.648-12.042,0.729
					c-1.043-0.93-2.221-3.38-3.379-6.42c-2.945-7.773-5.731-19.402-5.731-19.402l15.446-7.893c0,0,1.987,8.91,3.699,17.377
					c0,0,0.015,0.086,0.047,0.236c0.557,2.712,1.076,5.38,1.483,7.669c0.017,0.065,0.023,0.118,0.029,0.182
					C577.035,304.875,577.297,307.725,577.076,309.654z"/>
				<path style="fill:#FFFFFF;" d="M550.089,273.753c1.492,6.203,6.18,17.957,6.18,17.957c3.284,0.545,7.688-0.06,11.337-1.371
					c4.212-1.513,7.22-4.69,7.22-4.69s-3.109-8.739-5.899-15.017c-2.505-5.636-4.009-7.74-5.093-8.857
					c-1.633-1.709-4.265-3.67-6.133-4.561L550.089,273.753z"/>
				<path style="fill:#FFFFFF;" d="M569.621,277.804l-9.064-3.911l-7.142-18.402c0,0,1.309,0.398,3.032,1.094c0,0,0,0,0.008,0
					c0.033,0.017,0.108,0.041,0.232,0.091c0.041,0.017,0.091,0.033,0.133,0.058c1.541,0.721,7.515,4.242,11.649,17.035
					c0.033,0.108,0.066,0.215,0.099,0.323c0.439,1.475,0.762,2.66,0.936,3.273c0.017,0.058,0.033,0.116,0.05,0.182
					C569.58,277.63,569.597,277.721,569.621,277.804z"/>
				<g>
					<path style="fill:#E5918F;" d="M577.076,309.654c0,0,0,0-0.001,0.01c-0.133,1.131-0.445,1.944-1.004,2.232
						c-0.089,0.057-1.357,0.812-1.446,0.869c-1.889,1.155-5.314,3.119-9.574,4.951c-10.332,4.464-25.342,9.641-33.434,12.013
						c0,0-0.799-2.286-2.045-4.667c0,0,7.32-3.399,14.514-8.91c7.205-5.499,17.567-12.179,17.567-12.179l2.617-3.078
						c0,0,9.303-8.562,10.797-6.839c0,0,0.015,0.086,0.047,0.236c0.222,0.893,0.96,4.178,1.483,7.669
						c0.017,0.065,0.023,0.118,0.029,0.182C577.035,304.875,577.297,307.725,577.076,309.654z"/>
					<path style="fill:#E5918F;" d="M530.642,324.539c0,0-1.819,1.096-3.672,0.706c-1.025-0.216-1.439-0.635-2.197-0.768
						c-0.758-0.133-2.777-0.382-3.777-0.873c-0.999-0.49-1.39-0.545-1.354,0.459c0.035,1.004,2.007,1.871,2.542,2.15
						c0.535,0.278,1.206,1.168,1.278,1.28c0.072,0.112-3.287,1.87-4.19,1.513c0,0-0.269,0.809-0.116,1.26
						c0.153,0.452,0.844,0.61,0.897,0.837c0.054,0.227-0.159,0.691-0.009,1.051c0.15,0.36,0.766,0.362,1.015,0.947
						c0.249,0.585-0.025,0.595,0.156,1.205c0.181,0.611,0.962,0.72,1.11,1.035c0.148,0.315,0.07,0.683,0.397,0.9
						c0.328,0.217,3.349-0.753,4.452-1.225c1.103-0.473,4.05-4.715,7.311-6.161L530.642,324.539z"/>
				</g>
				<path style="fill:#375F84;" d="M546.082,343.477h-23.497v-2.299h23.497c0.635,0,1.15,0.515,1.15,1.15l0,0
					C547.232,342.962,546.717,343.477,546.082,343.477z"/>
				<path style="fill:#375F84;" d="M533.369,343.477h-58.833c-0.704,0-1.323-0.47-1.511-1.148l-12.041-43.347
					c-0.266-0.959,0.455-1.909,1.451-1.909h56.893c1.326,0,2.489,0.884,2.844,2.161l11.998,43.191
					C534.315,342.954,533.917,343.477,533.369,343.477z"/>
				<path style="fill:#467CDB;" d="M531.239,343.477h-58.833c-0.704,0-1.322-0.47-1.511-1.148l-12.041-43.347
					c-0.266-0.959,0.455-1.909,1.451-1.909h56.893c1.326,0,2.489,0.884,2.844,2.161l11.998,43.191
					C532.186,342.954,531.788,343.477,531.239,343.477z"/>
			</g>
		</g>
		<g>
			<path style="fill:#E49191;" d="M298.064,315.469l6.815-6.987c0,0,0.236-3.116,0.607-3.773c0.371-0.657,1.33-3.091,1.807-3.356
				c0.478-0.265,1.433,0,1.433,0s0.947-0.318,1.371-0.318c0.425,0,1.219,0.388,1.219,0.388s1.019-0.069,1.443-0.069
				c0.425,0,0.561,0.119,0.561,0.119s1.643-1.89,2.439-2.526c0.796-0.637,2.013-1.809,2.374-1.805
				c0.34,0.004,0.49,0.602,0.242,1.239c-0.248,0.637-1.326,1.664-1.326,1.664l-3.105,4.706c0,0,0.531-0.212,0.814-0.389
				c0.283-0.177,2.177-1.946,2.291-2.017c0.115-0.071,0.964-0.637,1.459-0.071s-3.251,5.054-3.853,5.655
				c-0.602,0.602-4.045,2.345-4.045,2.345s-3.636,6.54-3.99,6.965C306.267,317.663,298.064,315.469,298.064,315.469z"/>
			<path style="fill:#E49191;" d="M304.478,283.217c0,0-3.807,22.052-7.39,22.564c0,0-14.305,0.577-17.491-16.776
				c-2.764-15.049,8.321-18.259,13.506-17.107C298.287,273.048,305.591,273.797,304.478,283.217z"/>
			<path style="fill:#E49191;" d="M291.836,302.254c0,0-2.005,2.702-2.707,9.245c0,0-5.957,0.852-11.45-1.977
				c0,0,2.96-9.23,3.323-19.25"/>
			<path style="fill:#002C54;" d="M287.801,268.205c-7.817,1.727-7.192,6.597-7.192,6.597c-3.66,0.906-4.446,2.417-4.416,9.172
				c0.03,6.756,2.475,14.867,3.823,15.527c1.348,0.66,8.99,0.692,9.628,0.46c0.638-0.232,3.312-6.429,2.689-7.52
				c-0.624-1.09,0.031-5.378,1.811-5.54c1.78-0.163,1.431,2.597,1.431,2.597l1.463-0.321l1.129-2.77
				c10.33,0.615,12.999-11.157,12.999-11.157C308.685,273.632,295.619,266.478,287.801,268.205z"/>
			<path style="fill:#E5918F;" d="M201.027,417.489l7.904,1.143l-2.618,9.229l-8.56-2.159c0,0-3.483-4.721,1.776-8.213
				C199.782,417.32,200.613,417.395,201.027,417.489z"/>
			<path d="M260.021,393.783l-11.65-35.274c0,0-3.531-1.258-5.34,0c0,0-12.136,6.526-10.841,25.134
				c0.976,14.028,3.938,29.242,5.138,35.344l-31.082-1.149c0,0-3.835,4.558-1.354,10.491c0,0,39.055,10.503,44.557,11.474
				c4.471,0.789,9.365,1.397,11.728-0.627C265.341,435.609,260.021,393.783,260.021,393.783z"/>
			<path style="fill:#E5918F;" d="M237.828,417.489l7.904,1.143l-2.618,9.229l-8.56-2.159c0,0-3.483-4.721,1.776-8.213
				C236.583,417.32,237.414,417.395,237.828,417.489z"/>
			<path style="fill:#467CDB;" d="M234.96,422.328c-0.177,1.817,1.413,3.454,1.122,3.907c-0.291,0.453-5.604,9.367-5.604,9.367
				s4.011,1.747,3.364,4.27h-10.158c0,0-2.653-2.394-2.588-5.823c0,0,0.69-3.947,2.502-7.441c1.812-3.494,5.93-11.382,5.93-11.382
				s1.249-0.505,3.386,0.065c2.502,0.667,4.914,2.198,4.914,2.198S235.397,417.838,234.96,422.328z"/>
			<path style="fill:#002C54;" d="M316.331,431.765c-2.508-9.358-26.105-49.309-34.088-60.096
				c-16.397-7.119-33.872-13.16-33.872-13.16c-7.227,1.726-10.787,16.289-6.688,25.997c2.812,6.661,20.652,23.424,31.577,33.293
				l-30.317-0.037c0,0-3.571,5.339-0.335,10.409c0,0,50.422,11.465,54.844,12.112c4.423,0.647,14.347,0,14.347,0
				S318.442,439.643,316.331,431.765z"/>
			<path style="fill:#467CDB;" d="M198.159,422.328c-0.177,1.817,1.413,3.454,1.122,3.907c-0.291,0.453-5.604,9.367-5.604,9.367
				s4.011,1.747,3.364,4.27h-10.158c0,0-2.653-2.394-2.588-5.823c0,0,0.69-3.947,2.502-7.441c1.812-3.494,5.93-11.382,5.93-11.382
				s1.249-0.505,3.386,0.065c2.501,0.667,4.914,2.198,4.914,2.198S198.596,417.838,198.159,422.328z"/>
			<path style="fill:#E49191;" d="M354.291,308.679l-16.261,28.603l-11.645-11.608l-9.639,14.348l2.799,1.344l-1.007,0.838
				c0,0,22.474,10.945,25.167,8.53c2.693-2.414,15.241-38.804,15.241-38.804L354.291,308.679z"/>
			<path style="fill:#467CDB;" d="M328.46,327.49c0,0-3.07,12.95-9.21,19.09l-15.71-5.98c0,0-7.29,12.26-14.42,21.66
				c-2.74,3.63-3.65,8.74-6.87,9.41c-0.2-0.07-0.39-0.13-0.59-0.18c-8.73-2.62-21.61,0.16-32.24-3.79
				c-11.74-4.37-9.46-6.83-9.46-6.83s7.12-12.83,11.16-26.42c1.8-6.01,3.05-11.58,3.88-15.93c1.49-7.7,7.66-13.72,15.44-14.77
				c0.09-0.01,0.17-0.03,0.26-0.04c8.9-1.13,32.2,1.62,36.73,3.56S328.46,327.49,328.46,327.49z"/>
			<path style="fill:#5996EF;" d="M303.54,340.6c0,0-7.29,12.26-14.42,21.66c-2.74,3.63-3.65,8.74-6.87,9.41
				c1.41-0.5,3.75-7.92,4.58-9.59c0.84-1.66,2.17-3.33,5.05-9.16c2.87-5.84,6.766-14.399,6.766-14.399L303.54,340.6z"/>
			<g>
				<path d="M273.26,417.799c0,0,0.247-0.055,0.683-0.111c0.436-0.045,1.061-0.136,1.812-0.165c1.503-0.082,3.514-0.022,5.504,0.254
					c0.993,0.144,1.983,0.319,2.897,0.55c0.916,0.216,1.76,0.472,2.468,0.731c0.713,0.243,1.285,0.514,1.685,0.693
					c0.4,0.183,0.622,0.301,0.622,0.301s-0.253-0.029-0.684-0.103c-0.426-0.091-1.046-0.174-1.778-0.299
					c-1.465-0.245-3.406-0.557-5.356-0.818c-0.972-0.151-1.951-0.257-2.867-0.385c-0.92-0.115-1.778-0.223-2.514-0.315
					C274.249,417.932,273.26,417.799,273.26,417.799z"/>
			</g>
			<path style="fill:#E49191;" d="M366.444,298.151c-0.262-0.026-1.929,1.312-2.734,1.973l0.927-1.776c0,0,1.226-1.184,1.667-1.834
				c0.441-0.65,0.209-1.3-0.139-1.335c-0.245-0.025-1.712,1.139-2.561,1.832l0.187-0.357c0,0,1.226-1.184,1.667-1.834
				c0.441-0.65,0.209-1.3-0.139-1.335c-0.348-0.035-3.169,2.333-3.169,2.333l-1.374,1.839l1.036-2.012c0,0,0.546-0.667,0.909-1.394
				c0.364-0.727,0.101-0.949-0.101-1.192s-2.101,1.172-2.586,1.737c-0.485,0.566-2.02,2.858-2.141,3.182l-1.587,3.283
				c-0.101-0.951-0.261-2.579-0.373-3.616c-0.162-1.495-1.515-1.848-1.562-1.121c-0.047,0.727-0.801,4.303-0.63,6.242
				c0.171,1.939,0.496,3.212,0.617,4.303c0.121,1.091-1.01,3.271-1.01,3.271s4.525,2.81,5.273,1.969
				c0.748-0.841,2.34-2.709,3.11-3.967c1.057-1.728,1.771-4,1.771-4l1.414-3.021c0,0,1.226-1.184,1.667-1.834
				C367.024,298.836,366.792,298.185,366.444,298.151z"/>
		</g>
		<g>
			<path style="fill:none;stroke:#FFFFFF;stroke-width:0.8956;stroke-miterlimit:10;" d="M626.192,207.074h-53.064
				c-3.401,0-6.158,2.757-6.158,6.158v12.536c0,3.137,2.347,5.727,5.381,6.109c0.445,0.056,0.777,0.434,0.777,0.882v6.862
				c0,0.397,0.509,0.56,0.74,0.237l5.405-7.558c0.168-0.235,0.439-0.375,0.728-0.375h46.191c3.401,0,6.158-2.757,6.158-6.158
				v-12.536C632.35,209.831,629.593,207.074,626.192,207.074z"/>
			<g>
				<path style="fill:none;stroke:#FFFFFF;stroke-width:0.8956;stroke-miterlimit:10;" d="M581.269,219.481
					c0,1.12-0.908,2.027-2.027,2.027c-1.12,0-2.027-0.908-2.027-2.027c0-1.12,0.908-2.027,2.027-2.027
					C580.361,217.454,581.269,218.361,581.269,219.481z"/>
				<path style="fill:none;stroke:#FFFFFF;stroke-width:0.8956;stroke-miterlimit:10;" d="M591.478,219.481
					c0,1.12-0.908,2.027-2.027,2.027c-1.12,0-2.027-0.908-2.027-2.027c0-1.12,0.908-2.027,2.027-2.027
					C590.57,217.454,591.478,218.361,591.478,219.481z"/>
				<path style="fill:none;stroke:#FFFFFF;stroke-width:0.8956;stroke-miterlimit:10;" d="M601.688,219.481
					c0,1.12-0.908,2.027-2.027,2.027c-1.12,0-2.028-0.908-2.028-2.027c0-1.12,0.908-2.027,2.028-2.027
					C600.78,217.454,601.688,218.361,601.688,219.481z"/>
				<path style="fill:none;stroke:#FFFFFF;stroke-width:0.8956;stroke-miterlimit:10;" d="M611.897,219.481
					c0,1.12-0.908,2.027-2.027,2.027c-1.12,0-2.028-0.908-2.028-2.027c0-1.12,0.908-2.027,2.028-2.027
					C610.989,217.454,611.897,218.361,611.897,219.481z"/>
				<path style="fill:none;stroke:#FFFFFF;stroke-width:0.8956;stroke-miterlimit:10;" d="M622.106,219.481
					c0,1.12-0.908,2.027-2.028,2.027s-2.027-0.908-2.027-2.027c0-1.12,0.908-2.027,2.027-2.027S622.106,218.361,622.106,219.481z"/>
			</g>
		</g>
		<g>
			<path style="fill:none;stroke:#FFFFFF;stroke-width:0.8956;stroke-miterlimit:10;" d="M206.891,262.031h53.064
				c3.401,0,6.158,2.757,6.158,6.158v12.536c0,3.138-2.347,5.727-5.381,6.109c-0.445,0.056-0.777,0.434-0.777,0.882v6.862
				c0,0.397-0.509,0.56-0.74,0.237l-5.405-7.558c-0.168-0.235-0.439-0.374-0.728-0.374h-46.191c-3.401,0-6.158-2.757-6.158-6.158
				v-12.536C200.733,264.788,203.49,262.031,206.891,262.031z"/>
			<g>
				<path style="fill:none;stroke:#FFFFFF;stroke-width:0.8956;stroke-miterlimit:10;" d="M251.814,274.438
					c0,1.12,0.908,2.027,2.027,2.027c1.12,0,2.028-0.908,2.028-2.027c0-1.12-0.908-2.027-2.028-2.027
					C252.722,272.41,251.814,273.318,251.814,274.438z"/>
				<path style="fill:none;stroke:#FFFFFF;stroke-width:0.8956;stroke-miterlimit:10;" d="M241.605,274.438
					c0,1.12,0.908,2.027,2.027,2.027c1.12,0,2.027-0.908,2.027-2.027c0-1.12-0.908-2.027-2.027-2.027
					C242.513,272.41,241.605,273.318,241.605,274.438z"/>
				<path style="fill:none;stroke:#FFFFFF;stroke-width:0.8956;stroke-miterlimit:10;" d="M231.395,274.438
					c0,1.12,0.908,2.027,2.027,2.027c1.12,0,2.027-0.908,2.027-2.027c0-1.12-0.908-2.027-2.027-2.027
					C232.303,272.41,231.395,273.318,231.395,274.438z"/>
				<path style="fill:none;stroke:#FFFFFF;stroke-width:0.8956;stroke-miterlimit:10;" d="M221.186,274.438
					c0,1.12,0.908,2.027,2.027,2.027c1.12,0,2.027-0.908,2.027-2.027c0-1.12-0.908-2.027-2.027-2.027
					C222.094,272.41,221.186,273.318,221.186,274.438z"/>
				<path style="fill:none;stroke:#FFFFFF;stroke-width:0.8956;stroke-miterlimit:10;" d="M210.977,274.438
					c0,1.12,0.908,2.027,2.028,2.027c1.12,0,2.027-0.908,2.027-2.027c0-1.12-0.908-2.027-2.027-2.027
					C211.884,272.41,210.977,273.318,210.977,274.438z"/>
			</g>
		</g>
		<g>
			<path style="fill:#FFFFFF;stroke:#495AD6;stroke-width:0.8956;stroke-miterlimit:10;" d="M527.358,178.154h-96.716
				c-5.334,0-9.658-4.324-9.658-9.658l0,0c0-5.334,4.324-9.658,9.658-9.658h96.716c5.334,0,9.658,4.324,9.658,9.658l0,0
				C537.016,173.83,532.692,178.154,527.358,178.154z"/>
			<g>
				<path style="fill:none;stroke:#495AD6;stroke-width:1.6716;stroke-miterlimit:10;" d="M525.941,167.831
					c0,2.837-2.299,5.136-5.136,5.136s-5.136-2.299-5.136-5.136s2.299-5.136,5.136-5.136S525.941,164.994,525.941,167.831z"/>
				
					<line style="fill:none;stroke:#495AD6;stroke-width:1.6716;stroke-linecap:round;stroke-miterlimit:10;" x1="524.436" y1="171.462" x2="527.272" y2="174.298"/>
			</g>
		</g>
		<g>
			<g>
				<path style="fill:#193091;" d="M380.851,440.829H356.52c-4.257,0-7.708-3.451-7.708-7.708V408.79
					c0-4.257,3.451-7.708,7.708-7.708h24.331c4.257,0,7.708,3.451,7.708,7.708v24.331
					C388.559,437.378,385.108,440.829,380.851,440.829z"/>
				<path style="fill:#495AD6;" d="M373.607,440.829h-24.331c-4.257,0-7.708-3.451-7.708-7.708V408.79
					c0-4.257,3.451-7.708,7.708-7.708h24.331c4.257,0,7.708,3.451,7.708,7.708v24.331
					C381.315,437.378,377.864,440.829,373.607,440.829z"/>
				<path style="fill:#FFFFFF;" d="M356.747,413.453l11.409,6.587c0.704,0.407,0.704,1.423,0,1.83l-11.409,6.587
					c-0.704,0.407-1.585-0.102-1.585-0.915v-13.174C355.163,413.555,356.043,413.047,356.747,413.453z"/>
			</g>
			<g>
				<path style="fill:#193091;" d="M632.535,440.829h-31.807c-5.565,0-10.076-4.511-10.076-10.076v-31.807
					c0-5.565,4.511-10.076,10.076-10.076h31.807c5.565,0,10.076,4.511,10.076,10.076v31.807
					C642.611,436.317,638.1,440.829,632.535,440.829z"/>
				<path style="fill:#495AD6;" d="M623.066,440.829h-31.807c-5.565,0-10.076-4.511-10.076-10.076v-31.807
					c0-5.565,4.511-10.076,10.076-10.076h31.807c5.565,0,10.076,4.511,10.076,10.076v31.807
					C633.142,436.317,628.631,440.829,623.066,440.829z"/>
				<path style="fill:#FFFFFF;" d="M613.405,401.618c0,3.448-2.795,6.243-6.243,6.243c-3.448,0-6.243-2.795-6.243-6.243
					c0-3.448,2.795-6.243,6.243-6.243C610.61,395.375,613.405,398.17,613.405,401.618z"/>
				<path style="fill:#FFFFFF;" d="M620.176,422.754v9.215c0,0.833-0.675,1.508-1.508,1.508h-23.013
					c-0.833,0-1.508-0.675-1.508-1.508v-9.215c0-7.187,5.826-13.014,13.014-13.014l0,0
					C614.35,409.741,620.176,415.567,620.176,422.754z"/>
			</g>
			<g>
				<path style="fill:#F0F4FF;" d="M490.965,189.281h-20.429c-0.848,0-1.535-0.687-1.535-1.535l0,0c0-0.848,0.687-1.535,1.535-1.535
					h20.429c0.848,0,1.535,0.687,1.535,1.535l0,0C492.5,188.593,491.813,189.281,490.965,189.281z"/>
				<path style="fill:#F0F4FF;" d="M511.402,189.281h-14.784c-0.848,0-1.535-0.687-1.535-1.535l0,0c0-0.848,0.687-1.535,1.535-1.535
					h14.784c0.848,0,1.535,0.687,1.535,1.535l0,0C512.938,188.593,512.25,189.281,511.402,189.281z"/>
				<path style="fill:#F0F4FF;" d="M479.216,196.031h-8.679c-0.848,0-1.535-0.687-1.535-1.535l0,0c0-0.848,0.687-1.535,1.535-1.535
					h8.679c0.848,0,1.535,0.687,1.535,1.535l0,0C480.751,195.343,480.063,196.031,479.216,196.031z"/>
				<path style="fill:#F0F4FF;" d="M511.402,196.031h-27.034c-0.848,0-1.535-0.687-1.535-1.535l0,0c0-0.848,0.687-1.535,1.535-1.535
					h27.034c0.848,0,1.535,0.687,1.535,1.535l0,0C512.938,195.343,512.25,196.031,511.402,196.031z"/>
				<path style="fill:#F0F4FF;" d="M497.465,202.781h-26.929c-0.848,0-1.535-0.687-1.535-1.535l0,0c0-0.848,0.687-1.535,1.535-1.535
					h26.929c0.848,0,1.535,0.687,1.535,1.535l0,0C499,202.093,498.313,202.781,497.465,202.781z"/>
				<path style="fill:#F0F4FF;" d="M511.402,202.781h-8.68c-0.848,0-1.535-0.687-1.535-1.535l0,0c0-0.848,0.687-1.535,1.535-1.535
					h8.68c0.848,0,1.535,0.687,1.535,1.535l0,0C512.938,202.093,512.25,202.781,511.402,202.781z"/>
			</g>
			<g>
				<path style="fill:#193091;" d="M232.279,346.073h-71.315c-2.111,0-3.823-1.712-3.823-3.823v-36c0-2.112,1.712-3.823,3.823-3.823
					h71.315c2.111,0,3.823,1.712,3.823,3.823v36C236.103,344.362,234.391,346.073,232.279,346.073z"/>
				
					<line style="fill:none;stroke:#FFFFFF;stroke-width:0.8956;stroke-linecap:round;stroke-miterlimit:10;" x1="160.497" y1="308.323" x2="232.747" y2="308.323"/>
				<circle style="fill:#FFFFFF;" cx="230.84" cy="305.323" r="0.875"/>
				<circle style="fill:#FFFFFF;" cx="226.277" cy="305.323" r="0.875"/>
				<circle style="fill:#FFFFFF;" cx="221.715" cy="305.323" r="0.875"/>
				<g>
					<g>
						<path style="fill:#6589D1;" d="M173.965,314.198h-12.26c-0.667,0-1.208-0.541-1.208-1.208l0,0
							c0-0.667,0.541-1.208,1.208-1.208h12.26c0.667,0,1.208,0.541,1.208,1.208l0,0
							C175.173,313.657,174.632,314.198,173.965,314.198z"/>
						<path style="fill:#6589D1;" d="M173.965,319.781h-12.26c-0.667,0-1.208-0.541-1.208-1.208l0,0
							c0-0.667,0.541-1.208,1.208-1.208h12.26c0.667,0,1.208,0.541,1.208,1.208l0,0
							C175.173,319.241,174.632,319.781,173.965,319.781z"/>
						<path style="fill:#6589D1;" d="M173.965,325.365h-12.26c-0.667,0-1.208-0.541-1.208-1.208l0,0
							c0-0.667,0.541-1.208,1.208-1.208h12.26c0.667,0,1.208,0.541,1.208,1.208l0,0
							C175.173,324.824,174.632,325.365,173.965,325.365z"/>
						<path style="fill:#6589D1;" d="M173.965,330.948h-12.26c-0.667,0-1.208-0.541-1.208-1.208l0,0
							c0-0.667,0.541-1.208,1.208-1.208h12.26c0.667,0,1.208,0.541,1.208,1.208l0,0
							C175.173,330.407,174.632,330.948,173.965,330.948z"/>
						<path style="fill:#6589D1;" d="M173.965,336.531h-12.26c-0.667,0-1.208-0.541-1.208-1.208l0,0
							c0-0.667,0.541-1.208,1.208-1.208h12.26c0.667,0,1.208,0.541,1.208,1.208l0,0
							C175.173,335.991,174.632,336.531,173.965,336.531z"/>
						<path style="fill:#6589D1;" d="M173.965,342.115h-12.26c-0.667,0-1.208-0.541-1.208-1.208l0,0
							c0-0.667,0.541-1.208,1.208-1.208h12.26c0.667,0,1.208,0.541,1.208,1.208l0,0
							C175.173,341.574,174.632,342.115,173.965,342.115z"/>
					</g>
					<g>
						<path style="fill:#3B5FB7;" d="M231.538,314.198h-52.833c-0.667,0-1.208-0.541-1.208-1.208l0,0
							c0-0.667,0.541-1.208,1.208-1.208h52.833c0.667,0,1.208,0.541,1.208,1.208l0,0
							C232.747,313.657,232.206,314.198,231.538,314.198z"/>
						<path style="fill:#3B5FB7;" d="M231.538,319.781h-52.833c-0.667,0-1.208-0.541-1.208-1.208l0,0
							c0-0.667,0.541-1.208,1.208-1.208h52.833c0.667,0,1.208,0.541,1.208,1.208l0,0
							C232.747,319.241,232.206,319.781,231.538,319.781z"/>
						<path style="fill:#3B5FB7;" d="M231.538,325.365h-52.833c-0.667,0-1.208-0.541-1.208-1.208l0,0
							c0-0.667,0.541-1.208,1.208-1.208h52.833c0.667,0,1.208,0.541,1.208,1.208l0,0
							C232.747,324.824,232.206,325.365,231.538,325.365z"/>
						<path style="fill:#3B5FB7;" d="M231.538,330.948h-52.833c-0.667,0-1.208-0.541-1.208-1.208l0,0
							c0-0.667,0.541-1.208,1.208-1.208h52.833c0.667,0,1.208,0.541,1.208,1.208l0,0
							C232.747,330.407,232.206,330.948,231.538,330.948z"/>
						<path style="fill:#3B5FB7;" d="M231.538,336.531h-52.833c-0.667,0-1.208-0.541-1.208-1.208l0,0
							c0-0.667,0.541-1.208,1.208-1.208h52.833c0.667,0,1.208,0.541,1.208,1.208l0,0
							C232.747,335.991,232.206,336.531,231.538,336.531z"/>
						<path style="fill:#3B5FB7;" d="M231.538,342.115h-52.833c-0.667,0-1.208-0.541-1.208-1.208l0,0
							c0-0.667,0.541-1.208,1.208-1.208h52.833c0.667,0,1.208,0.541,1.208,1.208l0,0
							C232.747,341.574,232.206,342.115,231.538,342.115z"/>
					</g>
				</g>
			</g>
			<g>
				
					<ellipse transform="matrix(0.233 -0.9725 0.9725 0.233 330.4049 639.9047)" style="fill:none;stroke:#DEE3FC;stroke-width:0.7896;stroke-miterlimit:10;" cx="570.865" cy="110.495" rx="32.505" ry="32.505"/>
				
					<ellipse transform="matrix(0.9145 -0.4046 0.4046 0.9145 4.1108 240.4393)" style="fill:#3945BA;" cx="570.865" cy="110.495" rx="28.26" ry="28.26"/>
				<path style="fill:#FFFFFF;" d="M573.438,110.495c0,1.421-1.152,2.572-2.572,2.572c-1.421,0-2.572-1.152-2.572-2.572
					c0-1.421,1.152-2.572,2.572-2.572C572.286,107.922,573.438,109.074,573.438,110.495z"/>
				<path style="fill:#FFFFFF;" d="M570.585,109.989L570.585,109.989c-0.389,0.215-0.878,0.075-1.094-0.314l-8.311-14.991
					c-0.215-0.389-0.075-0.878,0.314-1.094l0,0c0.389-0.215,0.878-0.075,1.094,0.313l8.311,14.991
					C571.114,109.284,570.974,109.774,570.585,109.989z"/>
				<path style="fill:#FFFFFF;" d="M571.274,110.903L571.274,110.903c0.314-0.314,0.824-0.314,1.138,0l7.19,7.19
					c0.314,0.314,0.314,0.824,0,1.138l0,0c-0.314,0.314-0.824,0.314-1.138,0l-7.19-7.19
					C570.96,111.727,570.96,111.217,571.274,110.903z"/>
				<g>
					
						<line style="fill:none;stroke:#FFFFFF;stroke-width:2;stroke-linecap:round;stroke-miterlimit:10;" x1="571.038" y1="87.875" x2="571.038" y2="84.625"/>
					
						<line style="fill:none;stroke:#FFFFFF;stroke-width:2;stroke-linecap:round;stroke-miterlimit:10;" x1="593.485" y1="110.668" x2="596.735" y2="110.668"/>
					
						<line style="fill:none;stroke:#FFFFFF;stroke-width:2;stroke-linecap:round;stroke-miterlimit:10;" x1="570.692" y1="133.114" x2="570.692" y2="136.364"/>
					
						<line style="fill:none;stroke:#FFFFFF;stroke-width:2;stroke-linecap:round;stroke-miterlimit:10;" x1="548.245" y1="110.322" x2="544.995" y2="110.322"/>
				</g>
				<g style="opacity:0.5;">
					
						<line style="fill:none;stroke:#DEE3FC;stroke-linecap:round;stroke-miterlimit:10;" x1="559.705" y1="90.819" x2="558.08" y2="88.004"/>
					
						<line style="fill:none;stroke:#DEE3FC;stroke-linecap:round;stroke-miterlimit:10;" x1="590.541" y1="99.335" x2="593.355" y2="97.71"/>
					
						<line style="fill:none;stroke:#DEE3FC;stroke-linecap:round;stroke-miterlimit:10;" x1="582.025" y1="130.17" x2="583.65" y2="132.985"/>
					
						<line style="fill:none;stroke:#DEE3FC;stroke-linecap:round;stroke-miterlimit:10;" x1="551.19" y1="121.655" x2="548.375" y2="123.28"/>
				</g>
				<g style="opacity:0.5;">
					
						<line style="fill:none;stroke:#DEE3FC;stroke-linecap:round;stroke-miterlimit:10;" x1="551.362" y1="99.035" x2="548.548" y2="97.41"/>
					
						<line style="fill:none;stroke:#DEE3FC;stroke-linecap:round;stroke-miterlimit:10;" x1="582.325" y1="90.992" x2="583.95" y2="88.177"/>
					
						<line style="fill:none;stroke:#DEE3FC;stroke-linecap:round;stroke-miterlimit:10;" x1="590.368" y1="121.954" x2="593.182" y2="123.579"/>
					
						<line style="fill:none;stroke:#DEE3FC;stroke-linecap:round;stroke-miterlimit:10;" x1="559.406" y1="129.997" x2="557.781" y2="132.812"/>
				</g>
			</g>
			<g>
				<path style="fill:#193091;" d="M184.658,274.078h-35.695c-5.285,0-9.569-4.284-9.569-9.569v-35.695
					c0-5.285,4.284-9.569,9.569-9.569h35.695c5.285,0,9.569,4.284,9.569,9.569v35.695
					C194.227,269.793,189.943,274.078,184.658,274.078z"/>
				<path style="fill:#7E89FD;stroke:#DEE3FC;stroke-miterlimit:10;" d="M182.311,269.328h-39.5c-4.234,0-7.667-3.432-7.667-7.667
					v-39.5c0-4.234,3.432-7.667,7.667-7.667h39.5c4.234,0,7.667,3.432,7.667,7.667v39.5
					C189.977,265.895,186.545,269.328,182.311,269.328z"/>
				<g>
					<g>
						<path style="fill:#DEE3FC;" d="M172.055,235.633h-0.286v-3.141c0-5.156-4.193-9.35-9.349-9.35
							c-5.156,0-9.349,4.194-9.349,9.35v3.141h-0.063c-1.449,0-2.624,1.175-2.624,2.624v11.837c0,1.449,1.175,2.624,2.624,2.624
							h19.047c1.449,0,2.624-1.175,2.624-2.624v-11.837C174.679,236.807,173.504,235.633,172.055,235.633z M155.439,232.492
							c0-3.849,3.133-6.981,6.981-6.981c3.848,0,6.981,3.132,6.981,6.981v3.141h-13.963V232.492z"/>
						<path style="fill:#7E89FD;" d="M165.611,241.717c0-1.89-1.718-3.378-3.678-2.988c-1.155,0.23-2.113,1.178-2.354,2.33
							c-0.29,1.39,0.367,2.658,1.443,3.288c0.218,0.128,0.343,0.368,0.277,0.612l-0.531,1.959c-0.315,1.165,0.562,2.311,1.768,2.311
							c1.207,0,2.084-1.146,1.769-2.311l-0.525-1.938c-0.067-0.247,0.061-0.491,0.284-0.617
							C164.987,243.839,165.611,242.853,165.611,241.717z"/>
					</g>
					<path style="fill:#DEE3FC;" d="M173.554,256.868H151.51c-0.621,0-1.125-0.504-1.125-1.125l0,0c0-0.621,0.504-1.125,1.125-1.125
						h22.044c0.621,0,1.125,0.504,1.125,1.125l0,0C174.679,256.365,174.175,256.868,173.554,256.868z"/>
					<path style="fill:#DEE3FC;" d="M173.554,260.681H151.51c-0.621,0-1.125-0.504-1.125-1.125l0,0c0-0.621,0.504-1.125,1.125-1.125
						h22.044c0.621,0,1.125,0.504,1.125,1.125l0,0C174.679,260.177,174.175,260.681,173.554,260.681z"/>
				</g>
			</g>
			<g>
				<g>
					<path style="fill:#193091;" d="M616.573,338.532h-21.014c-3.111,0-5.634-2.522-5.634-5.634v-21.014
						c0-3.111,2.522-5.633,5.634-5.633h21.014c3.111,0,5.633,2.522,5.633,5.633v21.014
						C622.206,336.01,619.684,338.532,616.573,338.532z"/>
					<path style="fill:#7E89FD;stroke:#DEE3FC;stroke-miterlimit:10;" d="M615.191,335.736h-23.254
						c-2.493,0-4.513-2.021-4.513-4.513v-23.254c0-2.493,2.021-4.513,4.513-4.513h23.254c2.493,0,4.513,2.021,4.513,4.513v23.254
						C619.704,333.715,617.684,335.736,615.191,335.736z"/>
				</g>
				<g>
					<g>
						<path style="fill:#FFFFFF;" d="M597.042,329.235c-0.091,0-0.182-0.012-0.273-0.038c-0.532-0.149-0.841-0.702-0.69-1.233
							l4.882-17.281c0.15-0.533,0.705-0.844,1.233-0.69c0.532,0.149,0.841,0.702,0.69,1.233l-4.882,17.281
							C597.879,328.948,597.477,329.235,597.042,329.235z"/>
					</g>
					<g>
						<path style="fill:#FFFFFF;" d="M605.205,329.235c-0.091,0-0.182-0.012-0.272-0.038c-0.532-0.149-0.841-0.702-0.69-1.233
							l4.883-17.281c0.149-0.533,0.705-0.844,1.233-0.69c0.532,0.149,0.841,0.702,0.69,1.233l-4.883,17.281
							C606.042,328.948,605.641,329.235,605.205,329.235z"/>
					</g>
					<g>
						<path style="fill:#FFFFFF;" d="M612.204,316.679h-17.281c-0.553,0-1-0.447-1-1s0.447-1,1-1h17.281c0.553,0,1,0.447,1,1
							S612.757,316.679,612.204,316.679z"/>
					</g>
					<g>
						<path style="fill:#FFFFFF;" d="M612.204,324.573h-17.281c-0.553,0-1-0.447-1-1c0-0.553,0.447-1,1-1h17.281
							c0.553,0,1,0.447,1,1C613.204,324.126,612.757,324.573,612.204,324.573z"/>
					</g>
				</g>
			</g>
			<g>
				<path style="fill:#F0F4FF;" d="M226.873,235.991h-12.498c-0.757,0-1.37-0.614-1.37-1.37l0,0c0-0.757,0.614-1.37,1.37-1.37
					h12.498c0.757,0,1.37,0.614,1.37,1.37l0,0C228.243,235.377,227.63,235.991,226.873,235.991z"/>
				<path style="fill:#F0F4FF;" d="M239.463,242.074h-25.088c-0.757,0-1.37-0.614-1.37-1.37l0,0c0-0.757,0.614-1.37,1.37-1.37
					h25.088c0.757,0,1.37,0.614,1.37,1.37l0,0C240.833,241.461,240.22,242.074,239.463,242.074z"/>
				<path style="fill:#F0F4FF;" d="M217.338,248.158h-2.963c-0.757,0-1.37-0.613-1.37-1.37l0,0c0-0.757,0.614-1.37,1.37-1.37h2.963
					c0.757,0,1.37,0.613,1.37,1.37l0,0C218.708,247.544,218.095,248.158,217.338,248.158z"/>
				<path style="fill:#F0F4FF;" d="M239.463,248.158h-17.469c-0.757,0-1.37-0.613-1.37-1.37l0,0c0-0.757,0.614-1.37,1.37-1.37
					h17.469c0.757,0,1.37,0.613,1.37,1.37l0,0C240.833,247.544,240.22,248.158,239.463,248.158z"/>
				<path style="fill:#F0F4FF;" d="M239.463,235.991h-7.576c-0.757,0-1.37-0.614-1.37-1.37l0,0c0-0.757,0.614-1.37,1.37-1.37h7.576
					c0.757,0,1.37,0.614,1.37,1.37l0,0C240.833,235.377,240.22,235.991,239.463,235.991z"/>
			</g>
			<path style="fill:#FFFFFF;" d="M168.983,422.916c-1.628,0-3.152,0.447-4.456,1.224c-0.523-4.666-4.48-8.294-9.286-8.294
				c-5.162,0-9.347,4.185-9.347,9.347c0,0.346,0.02,0.687,0.057,1.024c-0.429-0.08-0.87-0.124-1.322-0.124
				c-3.942,0-7.137,3.195-7.137,7.137c0,3.942,3.195,7.137,7.137,7.137h24.355c4.819,0,8.725-3.906,8.725-8.725
				C177.709,426.822,173.802,422.916,168.983,422.916z"/>
		</g>
		<g>
			<path style="fill:#DEE3FC;" d="M107.043,385.44c-0.236-1.305-0.204-2.64,0.125-3.925c1.101-4.303,2.361-12.395-0.439-21.138
				c-4.671-14.585-23.603-27.503-23.603-27.503s5.139,21.523,9.364,30.688c3.093,6.71,8.504,14.346,11.507,18.366
				c0.833,1.116,1.404,2.401,1.652,3.771c3.061,16.937,2.618,30.048,2.61,30.251l1.421,0.055
				C109.687,415.801,110.137,402.556,107.043,385.44z"/>
			<path style="fill:#B4C1EF;" d="M122.138,371.727c3.761-11.89,5.51-25.896,5.51-25.896s-16.975,14.006-18.366,24.844
				c-0.852,6.638,0.207,11.962,1.157,15.095c0.403,1.33,0.55,2.721,0.401,4.103c-1.718,15.949-0.372,28.171-0.351,28.358
				l1.278-0.147c-0.021-0.179-1.27-11.552,0.201-26.622c0.201-2.064,1.033-4.015,2.339-5.625
				C116.736,382.839,120.209,377.825,122.138,371.727z"/>
			<path style="fill:#DEE3FC;" d="M139.394,345.278c0,0-18.292,6.788-23.075,21.723c-2.911,9.09-1.536,17.492-0.398,21.844
				c0.319,1.221,0.302,2.496-0.004,3.721c-4.285,17.187-4.351,34.978-4.351,35.214h1.456c0-0.232,0.066-17.599,4.204-34.454
				c0.411-1.674,1.141-3.248,2.169-4.633c3.12-4.202,8.429-11.762,11.503-18.431C135.226,360.878,139.394,345.278,139.394,345.278z"
				/>
			<path style="fill:#B4C1EF;" d="M107.119,408.294c-0.455-6.252-2.159-11.88-4.224-16.602c-0.413-0.946-0.559-1.98-0.427-3.004
				c0.256-1.972,0.361-5.035-0.427-8.927c-1.484-7.328-11.21-23.158-25.292-24.086c0,0,4.859,7.811,7.359,14.347
				c3.163,8.269,7.678,16.918,15.166,20.238c1.317,0.584,2.348,1.677,2.897,3.008c1.805,4.375,3.254,9.486,3.664,15.119
				L107.119,408.294z"/>
			<g>
				<g>
					<path style="fill:#DEE3FC;" d="M97.598,440.363h23.238l6.029-36.845c0.267-1.631-0.992-3.112-2.644-3.112H94.213
						c-1.652,0-2.911,1.481-2.644,3.112L97.598,440.363z"/>
				</g>
			</g>
		</g>
		
			<line style="fill:none;stroke:#FFFFFF;stroke-width:1.1144;stroke-linecap:round;stroke-miterlimit:10;" x1="49.89" y1="440.363" x2="700.11" y2="440.363"/>
	</g>
</g>
</svg>
