<?xml version="1.0" encoding="utf-8"?>
<!-- Generator: Adobe Illustrator 27.5.0, SVG Export Plug-In . SVG Version: 6.00 Build 0)  -->
<svg version="1.1" xmlns="http://www.w3.org/2000/svg" xmlns:xlink="http://www.w3.org/1999/xlink" x="0px" y="0px"
	 viewBox="0 0 2500 2500" style="enable-background:new 0 0 2500 2500;" xml:space="preserve">
<g id="Background">
	<rect style="fill:#FFFFFF;" width="2500" height="2500"/>
</g>
<g id="Illustration">
	<g id="Blog_articles_1_">
		<ellipse style="fill:#F2E6DC;" cx="1250" cy="1250" rx="915.341" ry="915"/>
		<g>
			
				<rect x="682.361" y="870.263" transform="matrix(-1 -1.224647e-16 1.224647e-16 -1 2720.6665 2683.6235)" style="fill:#E6D0BE;" width="1355.945" height="943.098"/>
			
				<rect x="972.502" y="665.188" transform="matrix(-1.836970e-16 1 -1 -1.836970e-16 2660.9524 -59.7138)" style="fill:#F2E6DC;" width="775.662" height="1270.862"/>
			
				<ellipse transform="matrix(1 -0.0026 0.0026 1 -4.5309 3.5399)" style="fill:#F2E6DC;" cx="1360.333" cy="1745.857" rx="25.524" ry="25.514"/>
			<path style="fill:#BC8271;" d="M1543.208,2065.815h-365.75c-0.553,0-1-0.448-1-1v-17.834c0-0.062,0.006-0.124,0.018-0.185
				l40.144-213.255c0.089-0.473,0.502-0.815,0.982-0.815h285.463c0.48,0,0.894,0.342,0.982,0.815l40.144,213.255
				c0.012,0.061,0.018,0.123,0.018,0.185v17.834C1544.208,2065.368,1543.761,2065.815,1543.208,2065.815z M1178.458,2063.815h363.75
				v-16.741l-39.973-212.349h-283.805l-39.973,212.349V2063.815z"/>
			<path style="fill:#BC8271;" d="M1543.208,2088.109h-365.75c-0.553,0-1-0.448-1-1s0.447-1,1-1h365.75c0.553,0,1,0.448,1,1
				S1543.761,2088.109,1543.208,2088.109z"/>
		</g>
		<g>
			<g>
				<path style="fill:#FFFFFF;" d="M1146.055,1636.752l-26.715-7.649c1.341-13.705,1.56-27.342,0.729-40.808l26.947-6.726
					l-22.759-91.223l-27.008,6.741c-5.65-12.387-12.265-24.314-19.783-35.666l20.022-19.336l-65.339-67.614l-19.977,19.293
					c-10.984-7.837-22.67-14.874-35.007-20.994l7.659-26.708l-90.413-25.887l-7.659,26.709c-13.709-1.337-27.351-1.552-40.823-0.717
					l-6.72-26.936l-91.26,22.776l6.735,26.997c-12.393,5.651-24.326,12.268-35.684,19.786l-19.337-20.01l-67.655,65.337
					l19.294,19.965c-7.842,10.983-14.885,22.667-21.01,35.002l-26.715-7.649h-0.001l-25.92,90.39l26.715,7.649
					c-1.341,13.705-1.56,27.342-0.729,40.808l-26.947,6.726l22.758,91.223l27.008-6.741c5.65,12.388,12.265,24.315,19.782,35.666
					l-20.022,19.337l65.34,67.614l0,0l19.977-19.293c10.984,7.836,22.67,14.873,35.007,20.994l-7.659,26.708l90.413,25.887
					l7.659-26.709c13.708,1.337,27.351,1.552,40.822,0.718l6.72,26.936l0,0l91.26-22.777l-6.735-26.997
					c12.393-5.651,24.326-12.268,35.684-19.786l19.337,20.01l67.654-65.337l-19.293-19.965c7.842-10.983,14.884-22.667,21.01-35.002
					l26.715,7.649L1146.055,1636.752z M1019.931,1655.199c-26.634,82.81-114.238,131.384-198.598,110.118
					c-93.153-23.483-146.965-120.5-117.555-211.942c26.634-82.809,114.238-131.384,198.598-110.119
					C995.531,1466.741,1049.342,1563.758,1019.931,1655.199z"/>
			</g>
			<path style="fill:#F2E6DC;" d="M861.866,1810.994c-18.932,0-38.087-2.605-56.988-8.017
				c-53.085-15.199-97.066-50.156-123.842-98.431c-26.776-48.275-33.141-104.089-17.921-157.162
				c13.727-47.869,44.256-89.168,85.963-116.29c41.292-26.852,90.784-38.147,139.357-31.805c0.547,0.072,0.934,0.574,0.861,1.121
				c-0.071,0.547-0.568,0.935-1.121,0.862c-99.499-12.988-195.436,50.059-223.139,146.662
				c-15.071,52.559-8.768,107.833,17.748,155.641c26.517,47.808,70.072,82.426,122.643,97.478
				c89.674,25.677,185.372-12.419,232.724-92.637c0.281-0.475,0.895-0.633,1.37-0.353c0.476,0.281,0.633,0.894,0.353,1.37
				C1002.041,1773.527,933.63,1810.994,861.866,1810.994z"/>
		</g>
		<g>
			<g>
				<path style="fill:#8B865C;" d="M1517.567,1761.323l141.86-25.744l-188.645-56.723c-35.06-78.755-46.703-153.141-46.703-153.141
					s33.703-1.923,82.055,2.957l86.011,144.558l-7.888-131.746c40.01,9.295,82.613,23.816,121.6,46.437
					c5.484,3.182,10.741,6.485,15.784,9.894l17.807,199.246l51.859-126.239c33.397,57.514,30.935,120.182,1.19,156.491
					c-45.624,55.691-162.887,59.073-251.861-37.715C1532.421,1780.663,1524.747,1771.177,1517.567,1761.323z"/>
				<path style="fill:#776E42;" d="M1506.133,1528.672c23.341,2.355,50.09,6.3,78.123,12.812l7.888,131.746L1506.133,1528.672z"/>
				<path style="fill:#776E42;" d="M1721.64,1597.815c31.369,21.201,54.308,46.558,69.666,73.007l-51.859,126.239L1721.64,1597.815z
					"/>
				<path style="fill:#776E42;" d="M1517.567,1761.323c-18.904-25.948-34.327-54.482-46.786-82.467l188.645,56.723
					L1517.567,1761.323z"/>
			</g>
			<path style="fill:#776E42;" d="M1832.102,2017.271c-0.485,0-0.911-0.354-0.987-0.848c-11.305-73.503-39.301-144.49-80.96-205.286
				c-34.505-50.355-77.689-93.522-128.352-128.303c-0.455-0.313-0.57-0.935-0.258-1.39c0.313-0.455,0.935-0.571,1.391-0.258
				c50.865,34.919,94.224,78.261,128.869,128.82c41.827,61.042,69.936,132.315,81.286,206.113c0.084,0.546-0.29,1.056-0.836,1.14
				C1832.203,2017.268,1832.151,2017.271,1832.102,2017.271z"/>
			<g>
				<path style="fill:#776E42;" d="M1768.745,1716.537l90.088,41.052l-88.379-117.022c7.138-68.569,26.169-124.446,26.169-124.446
					s19.955,12.631,45.943,35.996l-0.706,134.826l40.995-93.694c19.689,22.942,39.058,50.544,53.558,82.209
					c2.04,4.453,3.907,8.897,5.617,13.324l-58.635,144.131l73.289-65.182c-0.753,53.301-23.809,95.297-53.376,107.905
					c-45.351,19.339-113.635-26.88-131.127-130.144C1770.567,1735.96,1769.451,1726.273,1768.745,1716.537z"/>
				<path style="fill:#8B865C;" d="M1842.567,1552.117c12.546,11.279,26.493,25.059,40.289,41.132l-40.995,93.694L1842.567,1552.117
					z"/>
				<path style="fill:#8B865C;" d="M1942.03,1688.783c10.631,27.537,15.001,54.438,14.655,78.949l-73.289,65.182L1942.03,1688.783z"
					/>
				<path style="fill:#8B865C;" d="M1768.745,1716.537c-1.856-25.636-0.827-51.605,1.709-75.971l88.379,117.022L1768.745,1716.537z"
					/>
			</g>
			<path style="fill:#776E42;" d="M1860.704,2022.73c-0.107,0-0.217-0.018-0.324-0.055c-0.522-0.179-0.801-0.748-0.622-1.271
				c18.918-55.123,27.414-115.428,24.572-174.396c-2.354-48.84-12.158-96.338-29.139-141.174c-0.195-0.516,0.064-1.094,0.581-1.289
				c0.519-0.196,1.095,0.064,1.29,0.581c17.055,45.033,26.9,92.736,29.266,141.786c2.854,59.219-5.68,119.782-24.678,175.143
				C1861.508,2022.469,1861.119,2022.73,1860.704,2022.73z"/>
			
				<rect x="1739.643" y="1943.09" transform="matrix(-1 -1.224647e-16 1.224647e-16 -1 3710.7849 3995.9529)" style="fill:#D87355;" width="231.498" height="109.772"/>
		</g>
		<g>
			<g>
				<rect x="791.715" y="514.581" style="fill:#FFFFFF;" width="966.384" height="315.51"/>
				<path style="fill:#E2A18D;" d="M1781.586,849.294H815.202c-0.552,0-1-0.448-1-1v-312.77c0-0.552,0.448-1,1-1h966.384
					c0.553,0,1,0.448,1,1v312.77C1782.586,848.847,1782.139,849.294,1781.586,849.294z M816.202,847.294h964.384v-310.77H816.202
					V847.294z"/>
				<g>
					<path style="fill:#E6D0BE;" d="M1491.684,598.282h-160.534c-0.553,0-1-0.448-1-1s0.447-1,1-1h160.534c0.553,0,1,0.448,1,1
						S1492.236,598.282,1491.684,598.282z"/>
					<path style="fill:#E6D0BE;" d="M1237.198,598.282H879.558c-0.553,0-1-0.448-1-1s0.447-1,1-1h357.641c0.553,0,1,0.448,1,1
						S1237.751,598.282,1237.198,598.282z"/>
					<path style="fill:#E6D0BE;" d="M1491.684,631.792h-420.185c-0.553,0-1-0.448-1-1c0-0.552,0.447-1,1-1h420.185
						c0.553,0,1,0.448,1,1C1492.684,631.345,1492.236,631.792,1491.684,631.792z"/>
					<path style="fill:#E6D0BE;" d="M1021.526,631.792H879.558c-0.553,0-1-0.448-1-1c0-0.552,0.447-1,1-1h141.969
						c0.553,0,1,0.448,1,1C1022.526,631.345,1022.079,631.792,1021.526,631.792z"/>
					<path style="fill:#E6D0BE;" d="M1491.684,663.208h-160.534c-0.553,0-1-0.448-1-1c0-0.552,0.447-1,1-1h160.534
						c0.553,0,1,0.448,1,1C1492.684,662.76,1492.236,663.208,1491.684,663.208z"/>
					<path style="fill:#E6D0BE;" d="M1237.198,663.208H879.558c-0.553,0-1-0.448-1-1c0-0.552,0.447-1,1-1h357.641
						c0.553,0,1,0.448,1,1C1238.198,662.76,1237.751,663.208,1237.198,663.208z"/>
					<path style="fill:#E6D0BE;" d="M1491.684,696.718h-302.746c-0.553,0-1-0.448-1-1s0.447-1,1-1h302.746c0.553,0,1,0.448,1,1
						S1492.236,696.718,1491.684,696.718z"/>
					<path style="fill:#E6D0BE;" d="M1115.478,696.718h-235.92c-0.553,0-1-0.448-1-1s0.447-1,1-1h235.92c0.553,0,1,0.448,1,1
						S1116.03,696.718,1115.478,696.718z"/>
					<path style="fill:#E6D0BE;" d="M1491.684,744.889h-370.26c-0.553,0-1-0.448-1-1s0.447-1,1-1h370.26c0.553,0,1,0.448,1,1
						S1492.236,744.889,1491.684,744.889z"/>
					<path style="fill:#E6D0BE;" d="M1491.684,778.398h-146.063c-0.553,0-1-0.448-1-1c0-0.552,0.447-1,1-1h146.063
						c0.553,0,1,0.448,1,1C1492.684,777.951,1492.236,778.398,1491.684,778.398z"/>
					<path style="fill:#E6D0BE;" d="M1288.26,778.398h-203.424c-0.553,0-1-0.448-1-1c0-0.552,0.447-1,1-1h203.424
						c0.553,0,1,0.448,1,1C1289.26,777.951,1288.813,778.398,1288.26,778.398z"/>
				</g>
			</g>
			<g>
				<path style="fill:#363E44;" d="M1578.474,617.72l0.06,46.467c0.033,25.664,20.849,46.441,46.494,46.408l0,0
					c25.645-0.033,46.407-20.865,46.373-46.528l-0.06-46.468L1578.474,617.72z"/>
				<ellipse style="fill:#EFBC73;" cx="1624.78" cy="518.995" rx="120.219" ry="120.307"/>
				<path style="fill:#FFFFFF;" d="M1624.674,681.041c-15.824,0-45.212-1.519-45.22-7.306c-0.001-0.552,0.446-1.001,0.999-1.002
					h0.001c0.552,0,0.999,0.447,1,0.998c0.455,1.908,15.242,5.309,43.09,5.31c0.148,0,0.294,0,0.443,0
					c28.138-0.037,43.067-3.503,43.52-5.434c-0.001-0.552,0.446-0.995,0.998-0.996c0.001,0,0.001,0,0.002,0
					c0.552,0,0.998,0.452,0.999,1.004c0.007,5.826-29.771,7.404-45.517,7.425C1624.886,681.041,1624.779,681.041,1624.674,681.041z"
					/>
				<path style="fill:#FFFFFF;" d="M1624.647,660.671c-15.824,0-45.212-1.519-45.22-7.306c-0.001-0.552,0.446-1,0.999-1.001h0.001
					c0.552,0,0.999,0.447,1,0.999c0.458,1.918,15.405,5.308,43.533,5.309c28.137-0.036,43.066-3.503,43.52-5.433
					c-0.001-0.553,0.446-0.995,0.998-0.996c0.001,0,0.001,0,0.002,0c0.552,0,0.998,0.452,0.999,1.004
					c0.007,5.826-29.771,7.404-45.517,7.424C1624.859,660.671,1624.753,660.671,1624.647,660.671z"/>
				<g>
					<path style="fill:#363E44;" d="M1608.842,611.042c-0.388,0-0.758-0.228-0.92-0.608l-37.895-88.797
						c-0.217-0.508,0.02-1.096,0.527-1.313c0.503-0.216,1.095,0.018,1.313,0.527l37.895,88.797c0.217,0.508-0.02,1.096-0.527,1.313
						C1609.106,611.017,1608.974,611.042,1608.842,611.042z"/>
					<path style="fill:#363E44;" d="M1640.954,611c-0.131,0-0.263-0.026-0.39-0.08c-0.509-0.216-0.746-0.803-0.531-1.311
						l37.664-88.895c0.217-0.51,0.808-0.744,1.311-0.531c0.509,0.216,0.746,0.803,0.531,1.311l-37.664,88.894
						C1641.713,610.771,1641.343,611,1640.954,611z"/>
					<path style="fill:#FFFFFF;" d="M1603.18,532.961c-4.692,0-9.375-1.134-13.465-3.463c-0.479-0.273-0.647-0.884-0.374-1.364
						c0.273-0.481,0.883-0.648,1.364-0.375c8.599,4.897,20.031,4.099,27.974-1.743c-7.176-3.856-12.968-10.34-15.419-18.162
						c-1.761-5.615-1.611-11.103,0.421-15.454c2.462-5.269,7.794-8.592,12.983-8.079c6.023,0.595,10.263,5.883,12.222,10.633
						c4.229,10.262,1.463,22.966-6.555,30.605c4.354,1.822,9.11,2.638,13.841,2.157c13.365-1.354,24.909-12.889,26.279-26.262
						c0.057-0.549,0.557-0.949,1.097-0.893c0.55,0.056,0.949,0.547,0.894,1.097c-1.465,14.282-13.793,26.602-28.068,28.048
						c-5.382,0.544-10.802-0.48-15.697-2.703C1615.763,530.929,1609.463,532.961,1603.18,532.961z M1615.635,486.272
						c-4.036,0-8.2,2.82-10.142,6.975c-1.82,3.897-1.936,8.873-0.325,14.009c2.381,7.596,8.128,13.845,15.194,17.398
						c7.893-7.015,10.701-19.169,6.674-28.937c-1.737-4.214-5.426-8.897-10.569-9.405
						C1616.191,486.286,1615.913,486.272,1615.635,486.272z"/>
				</g>
			</g>
		</g>
		<g>
			<g>
				<g>
					<polygon style="fill:#84524D;" points="441.972,2038.123 354.654,2036.812 380.671,1924.27 469.653,1939.095 					"/>
					<g>
						<path style="fill:#FFD092;" d="M563.969,2096.066H337.855l20.82-86.406h88.583l64.057,19.533
							C542.709,2037.692,564.258,2065.061,563.969,2096.066L563.969,2096.066z"/>
						<g>
							<path style="fill:#363E44;" d="M461.207,2032.529c-0.256,0-0.512-0.098-0.707-0.293c-0.391-0.391-0.391-1.024,0-1.414
								l14.154-14.15c0.391-0.391,1.023-0.391,1.414,0c0.391,0.391,0.391,1.024,0,1.414l-14.154,14.15
								C461.719,2032.431,461.463,2032.529,461.207,2032.529z"/>
							<path style="fill:#363E44;" d="M477.299,2037.354c-0.256,0-0.512-0.098-0.707-0.293c-0.391-0.391-0.391-1.024,0-1.414
								l14.155-14.15c0.391-0.391,1.023-0.391,1.414,0c0.391,0.391,0.391,1.024,0,1.414l-14.155,14.15
								C477.81,2037.257,477.555,2037.354,477.299,2037.354z"/>
						</g>
					</g>
				</g>
				<g>
					<polygon style="fill:#84524D;" points="849.534,2054.963 762.217,2053.651 764.914,1924.27 853.896,1939.095 					"/>
					<g>
						<path style="fill:#FFD092;" d="M969.783,2096.066H743.67l19.472-86.406h89.931l64.057,19.533
							C948.523,2037.692,970.073,2065.061,969.783,2096.066L969.783,2096.066z"/>
						<g>
							<path style="fill:#363E44;" d="M867.083,2033.962c-0.256,0-0.512-0.098-0.707-0.293c-0.391-0.391-0.391-1.024,0-1.414
								l14.155-14.15c0.391-0.391,1.023-0.391,1.414,0c0.391,0.391,0.391,1.024,0,1.414l-14.155,14.15
								C867.595,2033.865,867.339,2033.962,867.083,2033.962z"/>
							<path style="fill:#363E44;" d="M883.176,2038.788c-0.256,0-0.512-0.098-0.707-0.293c-0.391-0.391-0.391-1.024,0-1.414
								l14.155-14.15c0.391-0.391,1.023-0.391,1.414,0c0.391,0.391,0.391,1.024,0,1.414l-14.155,14.15
								C883.688,2038.69,883.432,2038.788,883.176,2038.788z"/>
						</g>
					</g>
				</g>
				<g>
					<path style="fill:#8B865C;" d="M557.288,1184.373c0,0-53.929,119.947-90.331,265.5
						c-36.402,145.554-101.117,510.785-101.117,510.785h99.768c0,0,196.84-225.069,214.367-533.697l60.67-243.937L557.288,1184.373z
						"/>
					<path style="fill:#8B865C;" d="M638.181,1472.784c0,0,102.465,148.249,110.554,479.788h114.599
						c0,0,83.59-185.985,36.402-381.404C852.548,1375.749,775.7,1165.505,775.7,1165.505H653.011L638.181,1472.784z"/>
					<path style="fill:#F2E6DC;" d="M671.032,1509.925c-0.067,0-0.136-0.007-0.204-0.021c-0.54-0.112-0.888-0.641-0.776-1.182
						l20.517-99.065c0.053-0.255,0.203-0.479,0.419-0.625l29.852-20.198c0.46-0.31,1.08-0.188,1.389,0.268
						c0.31,0.458,0.19,1.079-0.268,1.389l-29.517,19.97l-20.434,98.667C671.913,1509.6,671.496,1509.925,671.032,1509.925z"/>
				</g>
			</g>
			<g>
				<g>
					<g>
						<path style="fill:#EFBC73;" d="M769.905,917.09c-27.513-5.882-71.863-13.605-112.161-9.262
							c-46.97,5.062-117.989,27.999-148.614,46.269c-68.465,40.843-95.635,76.189-95.635,76.189l103.822,23.342l-48.702,141.588
							c-16.899,49.13-9.609,105.094,18.882,148.546l73.401-1.032l-11.365-78.549l35.391,70.928l203.632-136.876l7.629-125.983
							l131.556-36.585C927.74,1035.664,818.173,927.409,769.905,917.09z"/>
					</g>
					<g>
						<path style="fill:#EFBC73;" d="M792.226,1116.271c0,0,58.169,42.84,102.608,28.987s53.133-45.728,50.406-65.031
							c-2.727-19.303-75.053-143.682-186.216-166.705C759.024,913.521,748.542,1054.996,792.226,1116.271z"/>
						<path style="fill:#363E44;" d="M793.419,1116.498c-0.006,0-0.011,0-0.017,0c-0.553-0.009-0.992-0.465-0.983-1.017
							l0.304-18.002c0.011-0.552,0.516-0.99,1.017-0.983c0.553,0.009,0.992,0.465,0.983,1.017l-0.304,18.002
							C794.409,1116.061,793.964,1116.498,793.419,1116.498z"/>
					</g>
				</g>
				<g>
					<polygon style="fill:#FFFFFF;" points="519.017,1362.075 583.719,1292.165 561.339,1207.279 492.816,1207.911 
						428.114,1277.822 462.66,1350.151 					"/>
					<polygon style="fill:#D87355;" points="1044.758,794.013 583.719,1292.165 492.816,1207.911 953.855,709.76 1014.788,735.159 
											"/>
					<path style="fill:#363E44;" d="M375.017,1335.193c-42.874,46.326-48.853,96.703-23.75,119.969h0
						c25.102,23.266,71.779,10.609,114.653-35.716l54.442-58.825l-90.903-84.253L375.017,1335.193z"/>
					<g>
						<polygon style="fill:#F2E6DC;" points="953.855,709.76 1044.758,794.013 1072.473,725.474 1063.322,690.988 1020.022,676.86 
													"/>
						<polygon style="fill:#40484C;" points="1020.022,676.86 1072.473,725.474 1110.278,631.983 						"/>
					</g>
				</g>
				<g>
					<path style="fill:#84524D;" d="M701.367,1090.621c-10.158,3.077-54.42,9.118-61.36,28.729
						c-6.989,19.751,0.97,41.421,14.076,57.677c0.084,0.011,0.178,0.024,0.261,0.036c5.192,2.555,13.356,5.582,22.894,4.457
						c10.873-1.282,13.117-6.731,24.388-9.867c19.025-5.293,31.535,5.522,34.741-0.692c2.201-4.265-4.814-10.883-12.794-15.25
						c-8.192-4.484-15.397-3.931-15.394-5.462c0.004-1.68,7.391-1.296,16.625-1.661c4.29-0.169,16.323,6.607,20.187,1.218
						c3.081-4.296-7.647-14.474-20.31-17.079c-8.958-1.842-16.757,2.449-17.251,0.857c-0.371-1.194,4.339-3.638,9.021-4.539
						c7.725-1.489,20.11,5.312,23.571,0.283c3.39-4.927-6.136-13.651-17.628-16.783c-9.689-2.641-18.158,2.558-18.784,0.583
						c-0.44-1.389,2.871-4.501,11.421-8.68c7.137-3.487,23.247-5.685,20.743-13.669
						C733.669,1084.066,716.699,1085.975,701.367,1090.621z"/>
					<path style="fill:#84524D;" d="M483.958,1135.393c-22.342,7.059-37.884,27.805-37.366,51.118
						c0.339,15.285,7.632,31.145,31.404,40.955c57.88,23.887,189.045-57.559,189.045-57.559l16.155-75.002
						C607.695,1107.424,545.454,1115.964,483.958,1135.393z"/>
				</g>
				<g>
					<path style="fill:#EFBC73;" d="M560.659,1115.998l10.84,111.951l-99.287,15.348c-63.762,9.856-135.707-53.759-120.78-116.505
						c13.062-54.905,45.345-85.645,110.199-140.724l84.752,25.185l-36.4,106.758L560.659,1115.998z"/>
					<path style="fill:#363E44;" d="M509.983,1119.012c-0.107,0-0.216-0.018-0.322-0.054c-0.523-0.178-0.803-0.746-0.624-1.269
						l16.447-48.239c0.178-0.523,0.75-0.802,1.269-0.624c0.523,0.178,0.803,0.746,0.624,1.269l-16.447,48.239
						C510.788,1118.75,510.399,1119.012,509.983,1119.012z"/>
					<path style="fill:#363E44;" d="M457.98,1245.399c-6.018,0-11.989-0.589-17.866-1.766c-0.542-0.108-0.893-0.635-0.784-1.177
						c0.108-0.542,0.634-0.893,1.177-0.784c10.313,2.065,20.928,2.28,31.552,0.637l98.354-15.204l-2.506-25.879
						c-0.054-0.549,0.349-1.038,0.898-1.091c0.557-0.053,1.038,0.349,1.092,0.899l2.598,26.819c0.052,0.527-0.318,1.003-0.843,1.084
						l-99.288,15.348C467.56,1245.028,462.755,1245.399,457.98,1245.399z"/>
					<path style="fill:#363E44;" d="M494.965,1119.609c-0.534,0-0.977-0.422-0.998-0.96c-0.022-0.552,0.407-1.017,0.959-1.039
						l65.693-2.611c0.564-0.018,1.018,0.407,1.039,0.959c0.023,0.552-0.407,1.017-0.959,1.039l-65.693,2.611
						C494.992,1119.608,494.978,1119.609,494.965,1119.609z"/>
				</g>
				<g>
					<path style="fill:#84524D;" d="M791.715,1034.16l70.493,78.059c19.08,21.127,51.819,22.41,72.494,2.84h0
						c22.44-21.241,20.812-57.438-3.444-76.58l-81.392-64.232L791.715,1034.16z"/>
					<g>
						<path style="fill:#84524D;" d="M837.731,1014.044c11.616,1.875,15.159,7.823,14.115,14.287
							c-1.044,6.464-6.28,10.995-17.896,9.121c-11.616-1.875-25.214-9.446-24.17-15.91
							C810.824,1015.078,826.115,1012.169,837.731,1014.044z"/>
						<path style="fill:#84524D;" d="M838.796,991.281c13.463,2.173,17.57,9.067,16.36,16.559
							c-1.21,7.492-7.278,12.744-20.742,10.571c-13.463-2.173-29.223-10.948-28.013-18.44S825.332,989.108,838.796,991.281z"/>
						<path style="fill:#84524D;" d="M843.786,976.555c11.616,1.875,16.852-2.657,17.896-9.121
							c1.044-6.464-2.499-12.412-14.115-14.287s-26.906,1.034-27.951,7.498S832.169,974.68,843.786,976.555z"/>
						<path style="fill:#84524D;" d="M837.63,998.496c13.463,2.173,19.532-3.079,20.742-10.571
							c1.21-7.492-2.897-14.386-16.36-16.559s-31.185,1.198-32.395,8.69C808.407,987.548,824.167,996.323,837.63,998.496z"/>
					</g>
				</g>
			</g>
			<g>
				<path style="fill:#84524D;" d="M588.192,960.185l-5.201-0.083c-15.439-0.247-27.755-12.962-27.508-28.401l1.57-98.188
					c0.247-15.439,12.962-27.754,28.401-27.507l5.201,0.083c15.439,0.247,27.755,12.962,27.508,28.401l-1.57,98.188
					C616.346,948.116,603.63,960.432,588.192,960.185z"/>
				<g>
					<g>
						<path style="fill:#84524D;" d="M659.97,866.627c-3.885,18.999-58.94,21.677-58.94,21.677l-53.597-16.053
							c-18.635-19.931-17.579-51.188,2.359-69.817c19.938-18.628,51.208-17.572,69.843,2.359
							C619.635,804.794,663.927,847.276,659.97,866.627z"/>
						<path style="fill:#84524D;" d="M624.359,818.159c0,0,20.041,1.144,22.12,4.447c2.482,3.943-6.892,16.52-6.892,16.52
							S624.652,817.933,624.359,818.159z"/>
						<g>
							<path style="fill:#FFFFFF;" d="M586.058,837.99c0,0,4.075-7.124,11.47-11.737c1.573-0.981,6.461,13.455,4.523,13.674
								C593.529,840.89,586.058,837.99,586.058,837.99z"/>
							<g>
								<defs>
									<path id="SVGID_1_" d="M586.058,837.99c0,0,5.994-10.478,16.633-14.246c10.639-3.768,21.896,0.601,21.896,0.601
										s-5.994,10.478-16.633,14.246C597.314,842.359,586.058,837.99,586.058,837.99z"/>
								</defs>
								<clipPath id="SVGID_00000008146353127972731380000009618149686202143414_">
									<use xlink:href="#SVGID_1_"  style="overflow:visible;"/>
								</clipPath>
								<path style="clip-path:url(#SVGID_00000008146353127972731380000009618149686202143414_);fill:#363E44;" d="
									M597.639,825.735c1.839-7.939,9.768-12.886,17.71-11.048c7.942,1.838,12.89,9.764,11.051,17.704
									c-1.839,7.939-9.768,12.885-17.71,11.048C600.748,841.601,595.8,833.674,597.639,825.735z"/>
							</g>
						</g>
						<g>
							<path style="fill:#363E44;" d="M505.504,837.354c0,0,18.441,54.224,57.788,45.651l2.136-12.099l22.784-6.753L564.73,849.49
								c-8.201-6.377-8.517-18.659-0.656-25.448l34.319-29.639l-16.929-17.407C546.599,783.355,519.921,801.517,505.504,837.354z"/>
							<path style="fill:#363E44;" d="M538.481,798.693c-2.987,4.258-8.861,5.29-13.121,2.305s-7.521-10.42-4.535-14.678
								c2.987-4.258,11.091-3.727,15.35-0.742C540.435,788.563,541.467,794.435,538.481,798.693z"/>
							<path style="fill:#363E44;" d="M545.521,795.975c-4.68,2.271-10.316,0.319-12.588-4.359
								c-2.272-4.678-1.509-12.761,3.172-15.032c4.68-2.271,11.505,2.129,13.777,6.808
								C552.153,788.07,550.201,793.704,545.521,795.975z"/>
							<path style="fill:#363E44;" d="M560.699,790.288c-6.783,1.925-13.843-2.011-15.769-8.791
								c-1.926-6.78,1.003-17.387,7.786-19.312c6.783-1.925,14.851,5.559,16.777,12.34
								C571.419,781.306,567.482,788.363,560.699,790.288z"/>
							<path style="fill:#363E44;" d="M528.051,809.399c-2.848,4.352-8.686,5.573-13.04,2.727
								c-4.354-2.846-7.854-10.172-5.006-14.525c2.848-4.352,10.964-4.083,15.319-1.237
								C529.677,799.211,530.899,805.047,528.051,809.399z"/>
							<path style="fill:#363E44;" d="M571.034,784.251c-5.729-2.562-8.296-9.281-5.733-15.008
								c2.563-5.727,10.626-11.29,16.355-8.727c5.729,2.562,6.954,12.279,4.391,18.006
								C583.485,784.247,576.763,786.813,571.034,784.251z"/>
							<path style="fill:#363E44;" d="M521.497,819.858c-2.49,5.982-9.36,8.814-15.345,6.324
								c-5.984-2.489-11.949-10.66-9.459-16.642c2.49-5.982,12.492-7.511,18.477-5.021
								C521.155,807.009,523.987,813.876,521.497,819.858z"/>
							<path style="fill:#363E44;" d="M513.918,828.927c0.327,5.047-3.5,9.404-8.549,9.731c-5.049,0.327-12.049-3.327-12.377-8.374
								c-0.327-5.047,6.142-9.575,11.191-9.902C509.232,820.054,513.59,823.88,513.918,828.927z"/>
							<path style="fill:#363E44;" d="M582.591,792.901c-5.651-5.156-6.05-13.916-0.892-19.564
								c5.158-5.648,16.621-9.004,22.271-3.847c5.651,5.156,3.35,16.872-1.808,22.521
								C597.004,797.659,588.242,798.058,582.591,792.901z"/>
						</g>
						<path style="fill:#84524D;" d="M540.565,878.938c3.224,8.84,13.007,13.394,21.851,10.171
							c8.844-3.223,13.4-13.002,10.175-21.842c-3.224-8.84-13.007-13.394-21.85-10.172
							C541.896,860.319,537.341,870.098,540.565,878.938z"/>
						<path style="fill:#363E44;" d="M644.128,832.045l24.245,33.66c3.376,4.686,2.157,11.229-2.67,14.401
							c-1.214,0.798-2.537,1.647-3.957,2.531c-24.565,15.296-55.299,16.831-81.251,4.027l0,0
							c-8.694-4.289-13.836-13.499-12.925-23.147l0.3-3.18l8.96-2.164c0,0,19.613,12.514,26.981,8.079
							C611.179,861.817,618.178,846.281,644.128,832.045z"/>
						<path style="fill:#84524D;" d="M631.808,856.583c-2.498,0-4.922-1.196-6.431-3.25c-0.327-0.445-0.232-1.071,0.214-1.398
							c0.444-0.329,1.07-0.232,1.397,0.213c1.335,1.816,3.62,2.737,5.826,2.346c2.287-0.407,4.136-2.136,4.71-4.405
							c0.136-0.535,0.679-0.861,1.215-0.724c0.536,0.135,0.859,0.679,0.725,1.215c-0.768,3.029-3.24,5.338-6.3,5.883
							C632.713,856.544,632.259,856.583,631.808,856.583z"/>
						<path style="fill:#84524D;" d="M530.961,835.769c-0.524,0-0.965-0.408-0.997-0.938c-0.034-0.551,0.386-1.026,0.936-1.06
							l24.957-1.533c0.578-0.03,1.025,0.385,1.06,0.937c0.034,0.551-0.386,1.026-0.936,1.06l-24.957,1.533
							C531.002,835.769,530.981,835.769,530.961,835.769z"/>
					</g>
				</g>
			</g>
		</g>
		<g>
			<g>
				<rect x="1147.58" y="935.97" style="fill:#FFFFFF;" width="930.391" height="518.068"/>
				<path style="fill:#E2A18D;" d="M2100.583,1477.111h-930.391c-0.553,0-1-0.448-1-1V958.042c0-0.552,0.447-1,1-1h930.391
					c0.553,0,1,0.448,1,1v518.068C2101.583,1476.663,2101.136,1477.111,2100.583,1477.111z M1171.192,1475.111h928.391V959.042
					h-928.391V1475.111z"/>
			</g>
			<g>
				<rect x="1224.595" y="1030.249" style="fill:#F7F1EB;" width="492.883" height="354.112"/>
				<g>
					<ellipse style="fill:#E6D0BE;" cx="1472.785" cy="1181.706" rx="86.007" ry="86.07"/>
					<polygon style="fill:#FFFFFF;" points="1523.465,1181.707 1442.474,1134.913 1442.474,1228.5 					"/>
				</g>
				<rect x="1249.85" y="1328.995" style="fill:#E6D0BE;" width="445.869" height="23.094"/>
				<path style="fill:#EFBC73;" d="M1964.106,1150.121H1792.26c-24.979,0-45.302-20.322-45.302-45.302
					c0-25.065,20.322-45.388,45.302-45.388h171.847c24.98,0,45.303,20.322,45.303,45.302
					C2009.409,1129.798,1989.087,1150.121,1964.106,1150.121z M1792.26,1061.431c-23.877,0-43.302,19.425-43.302,43.302
					c0,23.963,19.425,43.388,43.302,43.388h171.847c23.877,0,43.303-19.425,43.303-43.302c0-23.962-19.426-43.388-43.303-43.388
					H1792.26z"/>
				<g>
					<path style="fill:#EFBC73;" d="M1964.107,1296.197H1792.26c-24.467,0-44.302-19.835-44.302-44.302v-0.086
						c0-24.467,19.835-44.302,44.302-44.302h171.847c24.467,0,44.302,19.835,44.302,44.302v0.086
						C2008.409,1276.362,1988.574,1296.197,1964.107,1296.197z"/>
					<path style="fill:#776E42;" d="M1934.104,1383.552c-0.104,0-0.208-0.016-0.31-0.049c-0.392-0.127-0.664-0.481-0.688-0.892
						l-8.275-139.737c-0.024-0.407,0.2-0.787,0.568-0.962c0.366-0.176,0.805-0.11,1.105,0.166l103.18,94.517
						c0.303,0.277,0.405,0.712,0.258,1.096c-0.147,0.383-0.515,0.638-0.926,0.641l-57.525,0.453l-36.615,44.403
						C1934.683,1383.422,1934.397,1383.552,1934.104,1383.552z M1926.974,1245.219l7.979,134.732l35.293-42.799
						c0.188-0.228,0.468-0.361,0.764-0.364l55.45-0.437L1926.974,1245.219z"/>
				</g>
			</g>
		</g>
		<g>
			<polygon style="opacity:0.5;fill:#FFFFFF;" points="771.107,344.563 1197.243,344.563 1197.243,461.363 1157.078,461.363 
				1157.078,547.032 1071.378,461.363 771.107,461.363 			"/>
			<path style="fill:#E6D0BE;" d="M1143.893,561.212c-0.26,0-0.516-0.102-0.707-0.293l-85.407-85.376H757.922c-0.553,0-1-0.448-1-1
				v-116.8c0-0.552,0.447-1,1-1h426.135c0.553,0,1,0.448,1,1v116.8c0,0.552-0.447,1-1,1h-39.164v84.669
				c0,0.404-0.243,0.769-0.617,0.924C1144.151,561.188,1144.021,561.212,1143.893,561.212z M758.922,473.543h299.271
				c0.266,0,0.52,0.105,0.707,0.293l83.993,83.962v-83.255c0-0.552,0.447-1,1-1h39.164v-114.8H758.922V473.543z"/>
			<polygon style="fill:#D87355;" points="1134.353,401.642 1115.374,404.043 1128.825,417.64 1125.245,436.425 1142.338,427.84 
				1159.104,437.048 1156.217,418.144 1170.16,405.051 1151.282,401.953 1143.133,384.652 			"/>
			<polygon style="fill:#D87355;" points="1055.24,401.642 1036.261,404.043 1049.712,417.64 1046.131,436.425 1063.225,427.84 
				1079.991,437.048 1077.104,418.144 1091.046,405.051 1072.169,401.953 1064.02,384.652 			"/>
			<polygon style="fill:#D87355;" points="976.127,401.642 957.148,404.043 970.599,417.64 967.018,436.425 984.112,427.84 
				1000.878,437.048 997.991,418.144 1011.933,405.051 993.056,401.953 984.907,384.652 			"/>
			<polygon style="fill:#D87355;" points="897.013,401.642 878.035,404.043 891.486,417.64 887.905,436.425 904.999,427.84 
				921.764,437.048 918.878,418.144 932.82,405.051 913.943,401.953 905.794,384.652 			"/>
			<polygon style="fill:#D87355;" points="817.901,401.642 798.922,404.043 812.373,417.64 808.792,436.425 825.886,427.84 
				842.651,437.048 839.765,418.144 853.707,405.051 834.83,401.953 826.681,384.652 			"/>
		</g>
	</g>
</g>
</svg>
