<?xml version="1.0" encoding="utf-8"?>
<!-- Generator: Adobe Illustrator 27.5.0, SVG Export Plug-In . SVG Version: 6.00 Build 0)  -->
<svg version="1.1" xmlns="http://www.w3.org/2000/svg" xmlns:xlink="http://www.w3.org/1999/xlink" x="0px" y="0px"
	 viewBox="0 0 3710 3710" style="enable-background:new 0 0 3710 3710;" xml:space="preserve">
<g id="Background">
	<g>
		<g>
			<rect style="fill:#FFFFFF;" width="3710" height="3710"/>
		</g>
	</g>
</g>
<g id="Illustration">
	<g>
		<path style="fill:#F4F7FA;" d="M2947.617,2932.088c-74.858,77.162-141.839,122.52-193.122,156.762
			c-500.151,333.956-1071.879,237.702-1248.643,204.802c-285.187-53.079-525.924-90.525-732.76-277.393
			c-469.995-424.622-447.135-1310.414-88.002-1859.123c42.582-65.061,401.172-596.602,974.137-671.501
			c14.014-1.832,24.47-2.875,33.628-3.845c88.636-9.385,637.898-58.914,1085.767,316.31
			c64.11,53.711,167.282,150.593,262.956,298.354C3391.405,1636.733,3392.513,2473.506,2947.617,2932.088z"/>
		<g>
			
				<linearGradient id="SVGID_1_" gradientUnits="userSpaceOnUse" x1="4355.7646" y1="565.4944" x2="4896.4033" y2="1455.5251" gradientTransform="matrix(0.9715 0.2369 -0.2369 0.9715 -3231.9116 -714.3309)">
				<stop  offset="0" style="stop-color:#FF9085"/>
				<stop  offset="1" style="stop-color:#FB6FBB"/>
			</linearGradient>
			<path style="fill:url(#SVGID_1_);" d="M1007.181,1733.558c0.802,0.616,1.608,1.229,2.416,1.841
				c47.808,36.193,106.448,67.302,178.851,88.135c14.4,3.066,28.8,6.131,43.2,9.196c20.383-30.933,34.232-64.003-5.967-87.973
				c-62.428-37.225-34.115-156.394-5.01-193.737c36.023-46.221,117.693-155.567,22.087-214.633
				c-79.591-49.173-141.001-64.637-118.973-177.525c22.028-112.888-21.235-197.694-123.898-216.541
				c-108.037-19.833-159.51-183.284-258.514-157.924c-172.51,44.191-96.95,324.263,69.632,441.891
				c166.582,117.629,43.974,157.423,16.013,247.301c-38.172,122.702,136.731,138.539,168.833,198.622
				C1006.725,1692.562,1009.182,1713.682,1007.181,1733.558z"/>
			<g>
				<defs>
					<path id="SVGID_00000131356709336756925150000016020284372772651173_" d="M984.988,1800.886l232.034,56.583
						c21.526-29.55,53.562-85.936,8.659-112.711c-62.428-37.226-34.115-156.394-5.01-193.738
						c36.023-46.22,117.693-155.566,22.087-214.633c-79.591-49.173-141.001-64.637-118.973-177.525
						c22.028-112.888-21.235-197.694-123.898-216.541c-108.037-19.834-159.51-183.284-258.515-157.923
						c-172.51,44.19-96.95,324.262,69.632,441.891c166.582,117.628,43.974,157.423,16.013,247.301
						c-38.172,122.703,136.731,138.539,168.833,198.621C1021.018,1719.312,1001.221,1770.556,984.988,1800.886z"/>
				</defs>
				<clipPath id="SVGID_00000126282300859231905010000012511926470474146469_">
					<use xlink:href="#SVGID_00000131356709336756925150000016020284372772651173_"  style="overflow:visible;"/>
				</clipPath>
				<g style="opacity:0.5;clip-path:url(#SVGID_00000126282300859231905010000012511926470474146469_);">
					<path style="fill:#FCFDFE;" d="M1103.143,1791.03l5.171,0.233c16.948-377.989-149.635-762.353-434.743-1003.094l-3.338,3.955
						C954.138,1031.85,1120.02,1414.61,1103.143,1791.03z"/>
					<path style="fill:#FCFDFE;" d="M1094.73,1584.157l5.023,1.25c35.863-144.308,187.36-226.092,188.886-226.901l-2.425-4.573
						C1284.668,1354.75,1131.16,1437.574,1094.73,1584.157z"/>
					<path style="fill:#FCFDFE;" d="M1104.365,1721.411l5.013-1.286c-37.468-146.024-298.768-230.312-301.403-231.146l-1.562,4.934
						C809.019,1494.738,1067.609,1578.163,1104.365,1721.411z"/>
					<path style="fill:#FCFDFE;" d="M994.035,1227.229l5.106-0.852c-19.727-117.955,90.487-264.525,91.602-265.992l-4.117-3.135
						C1085.496,958.735,973.943,1107.095,994.035,1227.229z"/>
					<path style="fill:#FCFDFE;" d="M875.94,1017.951l3.695-3.625c-95.458-97.248-279.47-102.361-281.32-102.399l-0.113,5.175
						C600.029,917.137,781.97,922.216,875.94,1017.951z"/>
				</g>
			</g>
		</g>
		<g>
			<defs>
				<path id="SVGID_00000175295788501416178710000015625115677332353160_" d="M1361.572,2084.342l-255.937-18.971
					c0,0-38.447-134.861,31.141-222.867c141.981-179.559-25.192-291.378-88.204-348.687
					c-95.028-86.427-141.077-204.032,10.915-242.48s19.975-279.372-153.61-396.832c-169.866-114.943-63.559-483.224,326.936-268.202
					c233.203,128.411,176.424,381.545,178.141,516.192c1.717,134.647,199.87,160.465,119.659,318.85
					c-68.515,135.29-186.578,228.892-109.349,331.119C1498.493,1854.694,1499.241,1962.95,1361.572,2084.342z"/>
			</defs>
			<clipPath id="SVGID_00000096036343287062626040000010624209780238189999_">
				<use xlink:href="#SVGID_00000175295788501416178710000015625115677332353160_"  style="overflow:visible;"/>
			</clipPath>
			
				<linearGradient id="SVGID_00000117641722505492944200000011158384427840224394_" gradientUnits="userSpaceOnUse" x1="2711.3352" y1="622.1105" x2="2200.4412" y2="2074.1267" gradientTransform="matrix(-0.9973 -0.0739 -0.0739 0.9973 3769.0173 141.1107)">
				<stop  offset="0" style="stop-color:#FFC444"/>
				<stop  offset="0.9964" style="stop-color:#F36F56"/>
			</linearGradient>
			
				<path style="clip-path:url(#SVGID_00000096036343287062626040000010624209780238189999_);fill:url(#SVGID_00000117641722505492944200000011158384427840224394_);" d="
				M1361.572,2084.342l-255.937-18.971c0,0-38.447-134.861,31.141-222.867c141.981-179.559-25.192-291.378-88.204-348.687
				c-95.028-86.427-131.921-191.729-5.703-248.907c142.809-64.695,36.593-272.945-136.992-390.405
				c-169.866-114.943-63.559-483.224,326.936-268.202c233.203,128.411,176.424,381.545,178.141,516.192
				c1.717,134.647,199.87,160.465,119.659,318.85c-68.515,135.29-186.578,228.892-109.349,331.119
				C1498.493,1854.694,1499.241,1962.95,1361.572,2084.342z"/>
			<g style="opacity:0.5;clip-path:url(#SVGID_00000096036343287062626040000010624209780238189999_);">
				<path style="fill:#BEB8F2;" d="M1249.042,2099.885l-5.243-1.368c0.848-3.247,84.512-328.632,70.188-676.208
					c-13.193-320.21-114.677-725.325-523.206-836.86l1.426-5.227c181.859,49.649,319.037,160.589,407.727,329.737
					c70.848,135.12,111.044,307.461,119.472,512.237C1333.74,1770.564,1249.889,2096.631,1249.042,2099.885z"/>
				<path style="fill:#BEB8F2;" d="M1233.943,982.242l-5.313-1.067c35.445-176.807-13.753-435.338-14.253-437.929l5.319-1.031
					C1220.197,544.818,1269.594,804.398,1233.943,982.242z"/>
				<path style="fill:#BEB8F2;" d="M1171.759,871.159c-173.484-126.802-347.449-85.024-349.184-84.587l-1.323-5.253
					c1.762-0.446,178.092-42.891,353.704,85.464L1171.759,871.159z"/>
				<path style="fill:#BEB8F2;" d="M1310.971,1650.052c-41.53-259.217-383.364-347.373-386.766-347.953l0.559-5.384
					c3.393,0.253,349.658,90.961,391.556,352.48L1310.971,1650.052z"/>
				<path style="fill:#BEB8F2;" d="M1320.64,1542.234l-5.21-1.494c46.142-161.039,231.904-260.432,233.776-261.417l2.524,4.793
					C1549.878,1285.092,1366.134,1383.441,1320.64,1542.234z"/>
				<path style="fill:#BEB8F2;" d="M1255.837,2047.025c-0.442-99.727-136.181-188.728-137.551-189.617l2.943-4.547
					c5.698,3.684,139.572,91.47,140.026,194.14L1255.837,2047.025z"/>
				<path style="fill:#BEB8F2;" d="M1276.686,1970.237l-5.259-1.305c18.98-76.534,142.55-154.201,183.156-179.723
					c5.738-3.607,10.692-6.721,11.465-7.449l3.771,3.89c-1.076,1.043-4.363,3.123-12.352,8.146
					C1417.318,1819.031,1295.14,1895.823,1276.686,1970.237z"/>
			</g>
		</g>
		<g>
			
				<linearGradient id="SVGID_00000183970861705428138270000010950784637760560518_" gradientUnits="userSpaceOnUse" x1="551.0845" y1="1999.524" x2="1704.3009" y2="1999.524">
				<stop  offset="0" style="stop-color:#444B8C"/>
				<stop  offset="0.9964" style="stop-color:#26264F"/>
			</linearGradient>
			<path style="fill:url(#SVGID_00000183970861705428138270000010950784637760560518_);" d="M1664.855,1104.364l-1068.865-43.3
				c-24.772-1.004-44.906,16.36-44.906,38.786v1800.411c0,22.426,20.134,39.282,44.906,37.656l1068.865-70.195
				c21.808-1.432,39.445-19.586,39.445-40.553V1143.925C1704.301,1122.958,1686.664,1105.247,1664.855,1104.364z"/>
			
				<linearGradient id="SVGID_00000006693464695868550520000017239101713420143499_" gradientUnits="userSpaceOnUse" x1="551.0845" y1="1999.524" x2="1704.3009" y2="1999.524">
				<stop  offset="0" style="stop-color:#444B8C"/>
				<stop  offset="0.9964" style="stop-color:#26264F"/>
			</linearGradient>
			<path style="fill:url(#SVGID_00000006693464695868550520000017239101713420143499_);" d="M1651.138,1133.278l-1055.147-72.214
				c-24.772-1.004-44.906,16.36-44.906,38.786v1800.411c0,22.426,20.134,39.282,44.906,37.656l1068.865-70.195
				c21.808-1.432,39.445-19.586,39.445-40.553V1143.925C1704.301,1122.958,1672.947,1134.162,1651.138,1133.278z"/>
			<g>
				<path style="fill:#D8DEE8;" d="M1686.586,1104.364l-1068.865-43.3c-24.772-1.004-44.906,16.36-44.906,38.786v1800.411
					c0,22.426,20.134,39.282,44.906,37.656l1068.865-70.195c21.808-1.432,39.446-19.586,39.446-40.553V1143.925
					C1726.032,1122.958,1708.395,1105.247,1686.586,1104.364z"/>
				<g style="opacity:0.3;">
					<path style="fill:#D8DEE8;" d="M1251.47,2418.693c-18.138-204.048,117.738-288.828,65.977-473.432
						c-64.073-228.516-311.462-238.704-396.061-463.942c-32.462-86.425-45.294-216.959,47.589-406.025l-351.254-14.229
						c-24.772-1.004-44.906,16.36-44.906,38.786v1800.411c0,22.426,20.134,39.282,44.906,37.656l954.434-62.68
						C1331.471,2705.914,1262.614,2544.065,1251.47,2418.693z"/>
				</g>
				
					<linearGradient id="SVGID_00000178902385350215090660000018412563296504551856_" gradientUnits="userSpaceOnUse" x1="1643.0476" y1="1159.7747" x2="899.9429" y2="2375.7627">
					<stop  offset="0" style="stop-color:#FFFFFF"/>
					<stop  offset="0.9964" style="stop-color:#EBEFF2"/>
				</linearGradient>
				<path style="fill:url(#SVGID_00000178902385350215090660000018412563296504551856_);" d="M1686.586,1126.783l-1068.865-41.856
					c-10.152-0.397-18.421,6.751-18.421,15.935v1797.72c0,9.184,8.268,16.124,18.421,15.471l1068.865-68.752
					c8.952-0.576,16.228-8.05,16.228-16.661V1143.036C1702.814,1134.425,1695.538,1127.134,1686.586,1126.783z"/>
				<path style="fill:#D8DEE8;" d="M1168.816,1915.172c-200.369,1.615-366.873-150.646-366.873-339.449
					s166.504-337.231,366.873-331.001c195.787,6.087,351.799,158.229,351.799,339.276S1364.604,1913.593,1168.816,1915.172z"/>
				<path style="fill:#FFFFFF;" d="M1496.819,1583.723c0,169.07-145.285,307.104-328.002,308.33
					c-186.702,1.253-341.068-140.228-341.068-316.033c0-175.805,154.366-313.732,341.068-308.179
					C1351.534,1273.273,1496.819,1414.652,1496.819,1583.723z"/>
				
					<linearGradient id="SVGID_00000062185255858259119580000017270444117572271287_" gradientUnits="userSpaceOnUse" x1="708.4092" y1="2078.3027" x2="1605.7306" y2="2078.3027">
					<stop  offset="0" style="stop-color:#AA80F9"/>
					<stop  offset="0.9964" style="stop-color:#6165D7"/>
				</linearGradient>
				<path style="opacity:0.74;fill:url(#SVGID_00000062185255858259119580000017270444117572271287_);" d="M1568.009,2034.122
					l-817.906,12.568c-23.003,0.354-41.694,17.647-41.694,38.626l0,0c0,20.978,18.691,37.617,41.694,37.164l817.906-16.102
					c20.854-0.411,37.721-16.882,37.721-36.789l0,0C1605.731,2049.68,1588.863,2033.801,1568.009,2034.122z"/>
				<path style="fill:#D8DEE8;" d="M1568.009,2176.376l-669.283,15.977c-22.614,0.54-40.99,17.84-40.99,38.641l0,0
					c0,20.8,18.376,37.145,40.99,36.507l669.283-18.868c20.854-0.588,37.721-17.202,37.721-37.11l0,0
					C1605.731,2191.614,1588.863,2175.878,1568.009,2176.376z"/>
				<g>
					<path style="fill:#B19AF3;" d="M750.484,2271.68l-0.762,0.021c-22.793,0.643-41.313-15.096-41.313-35.155v-3.331
						c0-20.059,18.52-36.761,41.313-37.305l0.762-0.019c22.731-0.542,41.116,15.202,41.116,35.166v3.316
						C791.6,2254.337,773.216,2271.039,750.484,2271.68z"/>
					<path style="fill:#D8DEE8;" d="M750.103,2278.796c-27.278,0.78-49.534-18.828-49.534-43.711s22.255-45.649,49.534-46.29
						c27.194-0.638,49.256,18.975,49.256,43.718C799.359,2257.257,777.297,2278.018,750.103,2278.796z M750.103,2203.006
						c-18.656,0.453-33.861,14.661-33.861,31.671c0,17.01,15.206,30.427,33.861,29.908c18.616-0.517,33.731-14.723,33.731-31.668
						C783.835,2215.973,768.719,2202.554,750.103,2203.006z"/>
				</g>
				<path style="fill:#D8DEE8;" d="M1568.009,2305.082l-669.283,21.127c-22.614,0.714-40.99,18.156-40.99,38.956l0,0
					c0,20.8,18.376,37.003,40.99,36.191l669.283-24.019c20.854-0.749,37.721-17.493,37.721-37.4l0,0
					C1605.731,2320.03,1588.863,2304.424,1568.009,2305.082z"/>
				<g>
					<path style="fill:#B19AF3;" d="M750.484,2406.677l-0.762,0.027c-22.793,0.818-41.313-14.778-41.313-34.837v-3.331
						c0-20.059,18.52-36.904,41.313-37.624l0.762-0.024c22.732-0.718,41.116,14.886,41.116,34.849v3.315
						C791.6,2389.018,773.215,2405.862,750.484,2406.677z"/>
					<path style="fill:#D8DEE8;" d="M750.103,2413.796c-27.278,0.99-49.534-18.446-49.534-43.33
						c0-24.883,22.255-45.821,49.534-46.671c27.194-0.847,49.256,18.595,49.256,43.339S777.297,2412.809,750.103,2413.796z
						 M750.103,2338.006c-18.656,0.597-33.861,14.922-33.861,31.932c0,17.01,15.206,30.31,33.861,29.648
						c18.616-0.661,33.731-14.983,33.731-31.927S768.719,2337.411,750.103,2338.006z"/>
				</g>
				<path style="fill:#D8DEE8;" d="M1568.009,2433.789l-669.283,26.278c-22.614,0.888-40.99,18.471-40.99,39.272l0,0
					c0,20.8,18.376,36.861,40.99,35.876l669.283-29.169c20.854-0.909,37.721-17.783,37.721-37.691l0,0
					C1605.731,2448.446,1588.863,2432.97,1568.009,2433.789z"/>
				<path style="fill:#D8DEE8;" d="M750.103,2548.797c-27.278,1.2-49.534-18.065-49.534-42.948s22.255-45.992,49.534-47.052
					c27.194-1.057,49.256,18.216,49.256,42.96S777.297,2547.6,750.103,2548.797z M750.103,2473.007
					c-18.656,0.74-33.861,15.183-33.861,32.192c0,17.009,15.206,30.192,33.861,29.387c18.616-0.804,33.731-15.242,33.731-32.187
					C783.835,2485.455,768.719,2472.269,750.103,2473.007z"/>
				<path style="fill:#D8DEE8;" d="M1568.009,2562.495l-669.283,31.428c-22.614,1.062-40.99,18.787-40.99,39.587l0,0
					c0,20.8,18.376,36.72,40.99,35.561l669.283-34.319c20.854-1.069,37.721-18.073,37.721-37.981l0,0
					C1605.731,2576.863,1588.863,2561.516,1568.009,2562.495z"/>
				<g>
					<path style="fill:#B19AF3;" d="M750.484,2676.672l-0.762,0.039c-22.793,1.169-41.313-14.142-41.313-34.201v-3.331
						c0-20.058,18.52-37.189,41.313-38.259l0.762-0.036c22.732-1.067,41.116,14.253,41.116,34.217v3.315
						C791.6,2658.38,773.216,2675.507,750.484,2676.672z"/>
					<path style="fill:#D8DEE8;" d="M750.103,2683.797c-27.278,1.41-49.534-17.684-49.534-42.567
						c0-24.883,22.255-46.163,49.534-47.433c27.194-1.266,49.256,17.838,49.256,42.581
						C799.359,2661.121,777.297,2682.391,750.103,2683.797z M750.103,2608.007c-18.656,0.884-33.861,15.443-33.861,32.453
						s15.206,30.075,33.861,29.126c18.616-0.947,33.731-15.502,33.731-32.447S768.719,2607.125,750.103,2608.007z"/>
				</g>
				<g>
					<defs>
						<path id="SVGID_00000176042033763420828340000013428928754785038255_" d="M1472.954,1583.448
							c0,156.769-134.821,284.578-304.137,285.486c-172.732,0.926-315.338-130.076-315.338-292.618s142.606-290.261,315.338-285.357
							C1338.133,1295.765,1472.954,1426.679,1472.954,1583.448z"/>
					</defs>
					<clipPath id="SVGID_00000066475108625166531410000002088961542337158074_">
						<use xlink:href="#SVGID_00000176042033763420828340000013428928754785038255_"  style="overflow:visible;"/>
					</clipPath>
					<g style="clip-path:url(#SVGID_00000066475108625166531410000002088961542337158074_);">
						<path style="fill:#26264F;" d="M1128.602,1363.061c-59.265-1.705-115.525,28.863-140.51,71.372
							c-30.112,51.231,10.093,76.817-9.539,160.058c-18.084,76.675-60.325,89.78-53.343,140.117
							c7.648,55.132,65.348,90.101,88.142,103.915c102.483,62.108,262.458,59.513,343.624-20.656
							c6.776-6.693,62.764-61.993,47.651-112.864c-13.523-45.523-71.515-45.842-83.529-93.152
							c-10.35-40.759,29.28-53.922,25.51-112.996c-0.738-11.557-4.23-66.267-48.339-91.554c-29.383-16.845-61.675-12.02-73.51-9.665
							C1210.547,1387.082,1175.933,1364.422,1128.602,1363.061z"/>
						
							<linearGradient id="SVGID_00000042736138553829821710000003181167938245992088_" gradientUnits="userSpaceOnUse" x1="827.7489" y1="1828.7245" x2="1496.8186" y2="1828.7245">
							<stop  offset="0" style="stop-color:#FF9085"/>
							<stop  offset="1" style="stop-color:#FB6FBB"/>
						</linearGradient>
						<path style="fill:url(#SVGID_00000042736138553829821710000003181167938245992088_);" d="M827.749,1790.839
							c0,0,299.705-162.459,669.07-0.526c0,0-46.978,138.748-328.002,148.219C878.256,1948.324,827.749,1790.839,827.749,1790.839z"
							/>
						
							<linearGradient id="SVGID_00000157297843029150067480000009103017894284242314_" gradientUnits="userSpaceOnUse" x1="1164.7612" y1="1815.9645" x2="1141.14" y2="1454.376">
							<stop  offset="0" style="stop-color:#893976"/>
							<stop  offset="1" style="stop-color:#311944"/>
						</linearGradient>
						<path style="fill:url(#SVGID_00000157297843029150067480000009103017894284242314_);" d="M1115.786,1579.336l-11.218,77.561
							c-3.828,26.468-23.456,48.594-50.768,57.162l-91.326,28.654c0,0,174.724,78.166,395.004,0.038l-100.367-32.566
							c-28.508-9.988-47.941-35.097-49.182-63.625l-2.881-66.197L1115.786,1579.336z"/>
						
							<linearGradient id="SVGID_00000081643279681246560500000012748077943645217433_" gradientUnits="userSpaceOnUse" x1="1206.4746" y1="1488.0642" x2="815.8141" y2="1766.069">
							<stop  offset="0" style="stop-color:#893976"/>
							<stop  offset="1" style="stop-color:#311944"/>
						</linearGradient>
						<path style="fill:url(#SVGID_00000081643279681246560500000012748077943645217433_);" d="M1251.786,1512.48
							c0,65.438-42.39,135.421-94.972,135.023c-52.907-0.4-96.037-71.818-96.037-137.989c0-66.172,43.13-101.439,96.037-100.304
							C1209.396,1410.339,1251.786,1447.042,1251.786,1512.48z"/>
						<path style="fill:#26264F;" d="M1198.88,1452.448c-28.553,0.837-71.821,6.439-101.807,35.212
							c-50.361,48.325-26.442,126.323-48.847,130.72c-19.963,3.917-50.889-51.772-50.389-112.543
							c0.418-50.896,19.167-110.523,67.956-124.528c28.644-8.222,37.077,6.358,129.384,16.823
							c53.748,6.093,32.667,28.083,44.755,36.678c53.65,38.144,46.862,160.102,17.985,161.352
							C1244.222,1596.755,1225.293,1564.641,1198.88,1452.448z"/>
					</g>
				</g>
				<path style="opacity:0.35;fill:#FFFFFF;" d="M1251.47,2418.693c-18.138-204.048,117.738-288.828,65.977-473.432
					c-64.073-228.516-311.462-238.704-396.061-463.942c-31.121-82.858-44.203-206.271,36.691-383.063l-340.356-13.328
					c-10.152-0.397-18.421,6.751-18.421,15.935v1797.72c0,9.184,8.268,16.124,18.421,15.471l925.774-59.548
					C1325.893,2692.618,1262.153,2538.875,1251.47,2418.693z"/>
			</g>
		</g>
		<g>
			
				<linearGradient id="SVGID_00000084492319983896883470000000288894182904197260_" gradientUnits="userSpaceOnUse" x1="2144.8113" y1="1983.9791" x2="3146.7153" y2="1983.9791">
				<stop  offset="0" style="stop-color:#444B8C"/>
				<stop  offset="0.9964" style="stop-color:#26264F"/>
			</linearGradient>
			<path style="fill:url(#SVGID_00000084492319983896883470000000288894182904197260_);" d="M3112.294,1148.714l-928.639-37.619
				c-21.429-0.868-38.843,15.333-38.843,36.188v1674.315c0,20.855,17.414,36.617,38.843,35.21l928.639-60.986
				c19.03-1.25,34.422-18.138,34.422-37.725V1185.574C3146.715,1165.987,3131.323,1149.485,3112.294,1148.714z"/>
			
				<linearGradient id="SVGID_00000119838069426679289170000008230539220120816003_" gradientUnits="userSpaceOnUse" x1="2144.8113" y1="1983.9791" x2="3146.7153" y2="1983.9791">
				<stop  offset="0" style="stop-color:#444B8C"/>
				<stop  offset="0.9964" style="stop-color:#26264F"/>
			</linearGradient>
			<path style="fill:url(#SVGID_00000119838069426679289170000008230539220120816003_);" d="M3102.371,1206.734l-918.716-95.639
				c-21.429-0.868-38.843,15.333-38.843,36.188v1674.315c0,20.855,17.414,36.617,38.843,35.21l928.639-60.986
				c19.03-1.25,34.422-18.138,34.422-37.725V1185.574C3146.715,1165.987,3121.4,1207.505,3102.371,1206.734z"/>
			<g>
				<path style="fill:#D8DEE8;" d="M3134.024,1148.714l-928.639-37.619c-21.429-0.868-38.843,15.333-38.843,36.188v1674.315
					c0,20.855,17.414,36.617,38.843,35.21l928.639-60.986c19.03-1.25,34.422-18.138,34.422-37.725V1185.574
					C3168.446,1165.987,3153.054,1149.485,3134.024,1148.714z"/>
				<g style="opacity:0.3;">
					<path style="fill:#D8DEE8;" d="M2755.042,2375.363c-15.77-190.297,102.419-269.168,57.382-441.417
						c-55.726-213.125-270.62-222.56-344.011-432.29c-28.148-80.438-39.273-201.956,41.278-378.232l-304.306-12.327
						c-21.429-0.868-38.843,15.333-38.843,36.188v1674.315c0,20.855,17.414,36.617,38.843,35.21l828.844-54.432
						C2824.624,2643.46,2764.732,2492.299,2755.042,2375.363z"/>
				</g>
				
					<linearGradient id="SVGID_00000110458254940360619500000016235345385666206616_" gradientUnits="userSpaceOnUse" x1="2572.8113" y1="2011.7571" x2="3039.6279" y2="1731.0358">
					<stop  offset="0" style="stop-color:#FFFFFF"/>
					<stop  offset="0.9964" style="stop-color:#EBEFF2"/>
				</linearGradient>
				<path style="fill:url(#SVGID_00000110458254940360619500000016235345385666206616_);" d="M3134.024,1169.656l-928.639-36.365
					c-8.783-0.344-15.935,6.325-15.935,14.867v1671.988c0,8.542,7.152,15.031,15.935,14.466l928.639-59.732
					c7.811-0.502,14.16-7.455,14.16-15.5V1184.8C3148.184,1176.755,3141.835,1169.962,3134.024,1169.656z"/>
				<path style="opacity:0.35;fill:#FFFFFF;" d="M2755.042,2375.363c-15.77-190.297,102.419-269.168,57.382-441.417
					c-55.726-213.125-270.62-222.56-344.011-432.29c-26.986-77.118-38.327-192.008,31.824-356.818l-294.852-11.546
					c-8.783-0.344-15.935,6.325-15.935,14.867v1671.988c0,8.542,7.152,15.031,15.935,14.466l803.865-51.706
					C2819.771,2631.04,2764.331,2487.458,2755.042,2375.363z"/>
				<path style="fill:#D8DEE8;" d="M2683.199,1905.805c-173.967,1.402-318.321-140.409-318.321-316.148
					c0-175.74,144.354-314.227,318.321-308.818c170.256,5.293,306.112,147.008,306.112,316.007
					C2989.311,1765.845,2853.455,1904.432,2683.199,1905.805z"/>
				<path style="fill:#FFFFFF;" d="M2968.578,1596.607c0,157.805-126.497,286.581-285.378,287.647
					c-162.109,1.088-295.961-130.683-295.961-294.34c0-163.657,133.852-292.346,295.961-287.526
					C2842.081,1307.114,2968.578,1438.802,2968.578,1596.607z"/>
				
					<linearGradient id="SVGID_00000137845516682601053950000005150711317676269962_" gradientUnits="userSpaceOnUse" x1="2283.8708" y1="2057.792" x2="3063.501" y2="2057.792">
					<stop  offset="0" style="stop-color:#AA80F9"/>
					<stop  offset="0.9964" style="stop-color:#6165D7"/>
				</linearGradient>
				<path style="opacity:0.74;fill:url(#SVGID_00000137845516682601053950000005150711317676269962_);" d="M3030.615,2017.065
					l-710.641,10.92c-19.92,0.306-36.103,16.378-36.103,35.898l0,0c0,19.519,16.183,35.025,36.103,34.633l710.641-13.99
					c18.18-0.358,32.886-15.718,32.886-34.307l0,0C3063.501,2031.629,3048.795,2016.786,3030.615,2017.065z"/>
				<path style="fill:#D8DEE8;" d="M3030.615,2149.878l-581.852,13.89c-19.606,0.468-35.535,16.547-35.535,35.913l0,0
					c0,19.365,15.929,34.615,35.535,34.062l581.852-16.404c18.18-0.513,32.886-15.997,32.886-34.587l0,0
					C3063.501,2164.163,3048.795,2149.445,3030.615,2149.878z"/>
				<g>
					<path style="fill:#B19AF3;" d="M2320.303,2237.365l-0.66,0.019c-19.738,0.556-35.773-14.121-35.773-32.785v-3.099
						c0-18.664,16.036-34.177,35.773-34.648l0.66-0.016c19.688-0.47,35.614,14.213,35.614,32.795v3.086
						C2355.917,2221.297,2339.991,2236.81,2320.303,2237.365z"/>
					<path style="fill:#D8DEE8;" d="M2319.974,2243.986c-23.622,0.675-42.89-17.61-42.89-40.761s19.269-42.44,42.89-42.994
						c23.553-0.552,42.666,17.736,42.666,40.767S2343.527,2243.313,2319.974,2243.986z M2319.974,2173.455
						c-16.156,0.392-29.322,13.589-29.322,29.417c0,15.827,13.166,28.339,29.322,27.89c16.124-0.448,29.217-13.643,29.217-29.414
						S2336.097,2173.064,2319.974,2173.455z"/>
				</g>
				<path style="fill:#D8DEE8;" d="M3030.615,2270.043l-581.852,18.367c-19.606,0.619-35.535,16.82-35.535,36.186l0,0
					c0,19.365,15.929,34.492,35.535,33.789l581.852-20.881c18.18-0.652,32.886-16.25,32.886-34.84l0,0
					C3063.501,2284.075,3048.795,2269.469,3030.615,2270.043z"/>
				<g>
					<path style="fill:#B19AF3;" d="M2320.303,2362.995l-0.66,0.024c-19.738,0.708-35.773-13.846-35.773-32.51v-3.1
						c0-18.664,16.036-34.3,35.773-34.923l0.66-0.021c19.688-0.621,35.614,13.939,35.614,32.521v3.086
						C2355.917,2346.654,2339.991,2362.289,2320.303,2362.995z"/>
					<path style="fill:#D8DEE8;" d="M2319.974,2369.62c-23.622,0.857-42.89-17.28-42.89-40.431s19.269-42.588,42.89-43.324
						c23.553-0.734,42.666,17.408,42.666,40.439S2343.527,2368.765,2319.974,2369.62z M2319.974,2299.088
						c-16.156,0.517-29.322,13.815-29.322,29.642c0,15.827,13.166,28.238,29.322,27.664c16.124-0.572,29.217-13.868,29.217-29.639
						S2336.097,2298.573,2319.974,2299.088z"/>
				</g>
				<path style="fill:#D8DEE8;" d="M3030.615,2390.208l-581.852,22.845c-19.606,0.77-35.535,17.094-35.535,36.459l0,0
					c0,19.365,15.929,34.37,35.535,33.515l581.852-25.358c18.18-0.792,32.886-16.503,32.886-35.093l0,0
					C3063.501,2403.987,3048.795,2389.495,3030.615,2390.208z"/>
				<g>
					<path style="fill:#B19AF3;" d="M2320.303,2488.626l-0.66,0.029c-19.738,0.86-35.773-13.571-35.773-32.235v-3.1
						c0-18.664,16.036-34.423,35.773-35.198l0.66-0.026c19.688-0.773,35.614,13.665,35.614,32.247v3.086
						C2355.917,2472.011,2339.991,2487.768,2320.303,2488.626z"/>
					<path style="fill:#D8DEE8;" d="M2319.974,2495.253c-23.622,1.039-42.89-16.949-42.89-40.101
						c0-23.152,19.269-42.736,42.89-43.654c23.553-0.915,42.666,17.08,42.666,40.111S2343.527,2494.217,2319.974,2495.253z
						 M2319.974,2424.722c-16.156,0.641-29.322,14.041-29.322,29.868s13.166,28.136,29.322,27.438
						c16.124-0.696,29.217-14.093,29.217-29.864C2349.19,2436.394,2336.097,2424.082,2319.974,2424.722z"/>
				</g>
				<path style="fill:#D8DEE8;" d="M3030.615,2510.373l-581.852,27.322c-19.606,0.921-35.535,17.368-35.535,36.733l0,0
					c0,19.365,15.929,34.247,35.535,33.242l581.852-29.836c18.18-0.932,32.886-16.756,32.886-35.346l0,0
					C3063.501,2523.899,3048.795,2509.519,3030.615,2510.373z"/>
				<g>
					<path style="fill:#B19AF3;" d="M2320.303,2614.257l-0.66,0.034c-19.738,1.012-35.773-13.296-35.773-31.959v-3.1
						c0-18.664,16.036-34.547,35.773-35.474l0.66-0.031c19.688-0.925,35.614,13.391,35.614,31.972v3.086
						C2355.917,2597.367,2339.991,2613.248,2320.303,2614.257z"/>
					<path style="fill:#D8DEE8;" d="M2319.974,2620.886c-23.622,1.221-42.89-16.619-42.89-39.771
						c0-23.152,19.269-42.885,42.89-43.984c23.553-1.097,42.666,16.751,42.666,39.782S2343.527,2619.669,2319.974,2620.886z
						 M2319.974,2550.355c-16.156,0.765-29.322,14.266-29.322,30.093c0,15.827,13.166,28.035,29.322,27.213
						c16.124-0.821,29.217-14.318,29.217-30.088C2349.19,2561.803,2336.097,2549.592,2319.974,2550.355z"/>
				</g>
				<g>
					<defs>
						<path id="SVGID_00000177447253210617754390000009486216747119659918_" d="M2947.789,1596.368
							c0,146.31-117.368,265.547-264.589,266.336c-149.988,0.804-273.662-121.207-273.662-272.533
							c0-151.326,123.674-270.489,273.662-266.231C2830.421,1328.119,2947.789,1450.058,2947.789,1596.368z"/>
					</defs>
					<clipPath id="SVGID_00000001649573436085539180000012163136791925655713_">
						<use xlink:href="#SVGID_00000177447253210617754390000009486216747119659918_"  style="overflow:visible;"/>
					</clipPath>
					<g style="clip-path:url(#SVGID_00000001649573436085539180000012163136791925655713_);">
						
							<linearGradient id="SVGID_00000107557253632271410660000014824637285452425890_" gradientUnits="userSpaceOnUse" x1="2387.239" y1="1825.9391" x2="2968.5779" y2="1825.9391">
							<stop  offset="0" style="stop-color:#AB316D"/>
							<stop  offset="1" style="stop-color:#792D3D"/>
						</linearGradient>
						<path style="fill:url(#SVGID_00000107557253632271410660000014824637285452425890_);" d="M2387.239,1790.621
							c0,0,260.025-151.41,581.339-0.483c0,0-40.919,129.479-285.378,138.161
							C2431.016,1937.255,2387.239,1790.621,2387.239,1790.621z"/>
						
							<linearGradient id="SVGID_00000142892934054298793740000007956792202105064832_" gradientUnits="userSpaceOnUse" x1="2674.2588" y1="1617.115" x2="2675.3481" y2="1828.4617">
							<stop  offset="0.0036" style="stop-color:#F36F56"/>
							<stop  offset="1" style="stop-color:#FFC444"/>
						</linearGradient>
						<path style="fill:url(#SVGID_00000142892934054298793740000007956792202105064832_);" d="M2637.13,1592.791l-9.743,72.289
							c-2.829,46.035-48.491,63.2-48.491,63.2c53.609,63.579,156.06,61.236,191.878,1.146
							c-24.752-9.276-52.503-47.432-53.583-74.028l-2.504-61.714L2637.13,1592.791z"/>
						
							<linearGradient id="SVGID_00000162354088706631244380000008985677767409844613_" gradientUnits="userSpaceOnUse" x1="2705.1804" y1="1327.0012" x2="2652.0703" y2="1654.9922">
							<stop  offset="0.0036" style="stop-color:#F36F56"/>
							<stop  offset="1" style="stop-color:#FFC444"/>
						</linearGradient>
						<path style="fill:url(#SVGID_00000162354088706631244380000008985677767409844613_);" d="M2755.317,1530.352
							c0,61.018-36.851,126.295-82.546,125.95c-45.958-0.348-83.409-66.871-83.409-128.527c0-61.656,37.45-94.576,83.409-93.589
							C2718.466,1435.167,2755.317,1469.333,2755.317,1530.352z"/>
						
							<linearGradient id="SVGID_00000106848948268787438920000002104693923744961204_" gradientUnits="userSpaceOnUse" x1="2677.1343" y1="1394.3275" x2="2651.323" y2="1553.7302">
							<stop  offset="0" style="stop-color:#444B8C"/>
							<stop  offset="0.9964" style="stop-color:#26264F"/>
						</linearGradient>
						<path style="fill:url(#SVGID_00000106848948268787438920000002104693923744961204_);" d="M2586.888,1543.297
							c4.598-0.655,9.192-1.311,13.785-1.965c-2.11-5.079-10.817-27.562,0-46.934c10.379-18.589,34.813-27.279,53.464-25.686
							c21.182,1.81,33.893,11.788,44.521,4.447c5.972-4.125,7.906-11.786,8.588-17.768c0.472,3.844,1.54,9.539,4.291,15.862
							c7.902,18.161,21.268,22.154,28.545,34.191c4.899,8.102,8.086,21.58,0,45.095c4.036-0.181,8.069-0.362,12.101-0.543
							c4.256-13.207,9.36-31.949,12.534-54.93c4.713-34.122,7.956-57.608-5.425-69.366c-2.666-2.343-14.46-11.661-42.695-3.767
							c-6.616-7.016-20.558-19.903-42.018-26.741c-7.424-2.365-44.254-14.1-76.921,8.639
							c-22.221,15.469-39.642,44.888-34.042,69.649c2.961,13.093,11.06,19.104,18.186,44.441
							C2584.812,1528.618,2586.196,1537.599,2586.888,1543.297z"/>
						
							<linearGradient id="SVGID_00000103257214635169290090000000675274075333588148_" gradientUnits="userSpaceOnUse" x1="2789.9541" y1="1343.8727" x2="2737.3374" y2="1668.8176">
							<stop  offset="0.0036" style="stop-color:#F36F56"/>
							<stop  offset="1" style="stop-color:#FFC444"/>
						</linearGradient>
						<path style="fill:url(#SVGID_00000103257214635169290090000000675274075333588148_);" d="M2743.848,1552.704
							c0,0,5.299-26.653,21.387-23.751c16.056,2.896-6.954,46.35-21.387,51.436V1552.704z"/>
						
							<linearGradient id="SVGID_00000097483298025337296440000010241858742367559297_" gradientUnits="userSpaceOnUse" x1="2625.738" y1="1310.1509" x2="2572.0203" y2="1641.8962">
							<stop  offset="0.0036" style="stop-color:#F36F56"/>
							<stop  offset="1" style="stop-color:#FFC444"/>
						</linearGradient>
						<path style="fill:url(#SVGID_00000097483298025337296440000010241858742367559297_);" d="M2599.702,1550.67
							c0,0-5.398-27.064-21.836-24.645c-16.47,2.424,7.113,47.077,21.836,52.58V1550.67z"/>
					</g>
				</g>
				<path style="opacity:0.5;fill:#D8DEE8;" d="M2730.806,1135.81l-525.421-24.715c-21.429-0.868-38.844,15.333-38.844,36.188
					v1674.315c0,20.855,17.414,36.617,38.844,35.21l524.93-36.858L2730.806,1135.81z"/>
			</g>
		</g>
		<g>
			<g>
				
					<linearGradient id="SVGID_00000176745099101304265880000001177929420184159401_" gradientUnits="userSpaceOnUse" x1="-1333.9889" y1="1565.0361" x2="-894.7691" y2="2719.1238" gradientTransform="matrix(-0.9979 -0.0653 -0.0653 0.9979 1659.3927 96.1151)">
					<stop  offset="0" style="stop-color:#AA80F9"/>
					<stop  offset="0.9964" style="stop-color:#6165D7"/>
				</linearGradient>
				<path style="fill:url(#SVGID_00000176745099101304265880000001177929420184159401_);" d="M2631.79,2597.654
					c19.489,42.09,0.916,84.191-16.91,112.526c-4.251,0.026-6.72,1.206-11.016,2.25c-38.767,9.431-56.949,4.632-96.36,7.485
					c-8.483,0.614-33.682-5.708-43.807-9.005l-18.774-6.475c0,0-33.318-102.377,19.036-130.656
					c52.354-28.278,32.308-130.166,27.919-185.734c-11.908-150.77,151.02-137.065,151.203-332.033
					c0.049-51.856-17.198-150.763,26.521-192.065c49.809-47.055,86.171-0.896,118.197-40.245
					c50.056-61.501,131.284-83.563,179.702-20.27c47.787,62.467-10.278,186.816-154.625,286.759
					c-95.434,83.43-96.925,108.407-89.414,169.232c5.261,42.604,45.901,153.589-11.927,197.907
					C2653.708,2501.649,2609.51,2549.538,2631.79,2597.654z"/>
				<g>
					<defs>
						<path id="SVGID_00000116942671367910309700000015414855456870956724_" d="M2589.719,2744.637l-141.633-36.48
							c0,0-36.479-106.098,15.875-134.377c52.354-28.278,32.308-130.166,27.919-185.734
							c-11.909-150.77,151.02-137.065,151.203-332.033c0.049-51.855-17.198-150.763,26.521-192.065
							c49.809-47.055,86.171-0.896,118.197-40.245c50.056-61.501,131.284-83.563,179.702-20.27
							c47.787,62.467-10.278,186.816-154.625,286.759c-95.434,83.43-96.925,108.407-89.414,169.232
							c5.261,42.604,45.901,153.589-11.928,197.907s-102.026,92.207-79.747,140.323
							C2665.691,2670.868,2589.719,2744.637,2589.719,2744.637z"/>
					</defs>
					<clipPath id="SVGID_00000035526230654635588020000001504612146655388840_">
						<use xlink:href="#SVGID_00000116942671367910309700000015414855456870956724_"  style="overflow:visible;"/>
					</clipPath>
					<g style="opacity:0.5;clip-path:url(#SVGID_00000035526230654635588020000001504612146655388840_);">
						<path style="fill:#FCFDFE;" d="M2528.025,2721.501l-2.877-0.359c2.137-17.144,4.504-34.406,7.035-51.309
							c18.749-125.15,48.501-244.02,88.433-353.311c33.836-92.605,75.437-179.644,123.646-258.698
							c38.77-63.575,82.005-122.356,128.506-174.709c32.69-36.803,66.642-70.074,100.917-98.886
							c5.972-5.022,12.36-9.824,18.539-14.468c8.232-6.187,16.744-12.585,24.335-19.554l1.96,2.137
							c-7.695,7.065-16.265,13.507-24.552,19.736c-6.148,4.62-12.504,9.399-18.416,14.37
							c-34.167,28.722-68.018,61.893-100.615,98.592c-46.385,52.223-89.517,110.865-128.198,174.293
							c-48.11,78.892-89.627,165.758-123.399,258.184c-39.865,109.106-69.569,227.787-88.288,352.743
							C2532.523,2687.141,2530.159,2704.38,2528.025,2721.501z"/>
						<path style="fill:#FCFDFE;" d="M2692.069,2157.926l-2.626-1.231c52.863-112.668,6.444-320.822,5.969-322.911l2.828-0.644
							C2698.717,1835.24,2745.354,2044.356,2692.069,2157.926z"/>
						<path style="fill:#FCFDFE;" d="M2571.821,2486.066l-2.75-0.917c26.966-80.772,178.18-143.121,179.705-143.742l1.094,2.687
							C2748.356,2344.708,2598.365,2406.555,2571.821,2486.066z"/>
						<path style="fill:#FCFDFE;" d="M2560.482,2533.218l-2.869-0.418c8.001-55.008-10.478-134.3-52.034-223.265
							c-2.089-4.474-2.089-4.474-2.018-5.02l2.875,0.383l-1.437-0.191l1.399-0.36c0.105,0.314,0.894,2.003,1.809,3.961
							C2549.998,2397.781,2568.564,2477.655,2560.482,2533.218z"/>
						<path style="fill:#FCFDFE;" d="M2532.368,2690.27l-2.629-1.22c25.782-55.532,113.907-77.448,114.793-77.663l0.684,2.818
							C2644.342,2614.417,2557.56,2636.01,2532.368,2690.27z"/>
						<path style="fill:#FCFDFE;" d="M2523.642,2721.727c-10.927-48.146-36.034-94.73-76.758-142.412l2.206-1.884
							c41.036,48.049,66.346,95.039,77.38,143.655L2523.642,2721.727z"/>
						<path style="fill:#FCFDFE;" d="M2848.056,1916.323l-2.551-1.376c32.882-61.004,53.286-132.714,59.991-156.279
							c1.623-5.704,2.201-7.71,2.523-8.374l2.607,1.268c-0.24,0.51-1.167,3.771-2.342,7.9
							C2901.558,1783.102,2881.089,1855.041,2848.056,1916.323z"/>
						<path style="fill:#FCFDFE;" d="M2779.921,2007.602l-2.033-2.067c46.314-45.589,176.275-44.13,181.785-44.046l-0.045,2.9
							C2958.291,1964.369,2825.371,1962.865,2779.921,2007.602z"/>
					</g>
				</g>
			</g>
			<g>
				<defs>
					<path id="SVGID_00000052801945463340279170000011182382444785946270_" d="M2401.819,2962.283l168.967,52.961
						c0,0,58.975-76.707,36.74-150.855c-45.365-151.286,90.302-180.458,145.297-201.178
						c82.937-31.247,142.396-94.952,54.703-158.287c-87.693-63.334,58.28-184.252,199.495-215.411
						c138.189-30.491,163.727-293.732-141.425-255.2c-182.236,23.011-210.236,199.802-245.6,285.718s-169.016,52.05-157.878,174.039
						c9.514,104.2,61.413,194.273-14.13,240.182C2372.445,2780.161,2344.417,2849.399,2401.819,2962.283z"/>
				</defs>
				<clipPath id="SVGID_00000013903550405162400550000016165225651664849334_">
					<use xlink:href="#SVGID_00000052801945463340279170000011182382444785946270_"  style="overflow:visible;"/>
				</clipPath>
				
					<linearGradient id="SVGID_00000058582700418715907520000006476433524092551557_" gradientUnits="userSpaceOnUse" x1="6193.6797" y1="1344.1824" x2="5841.1597" y2="2346.082" gradientTransform="matrix(0.9542 0.2991 -0.2991 0.9542 -2498.8721 -1062.5543)">
					<stop  offset="0.0036" style="stop-color:#E38DDD"/>
					<stop  offset="1" style="stop-color:#9571F6"/>
				</linearGradient>
				
					<path style="clip-path:url(#SVGID_00000013903550405162400550000016165225651664849334_);fill:url(#SVGID_00000058582700418715907520000006476433524092551557_);" d="
					M2401.819,2962.283l168.967,52.961c0,0,58.975-76.707,36.74-150.855c-45.365-151.286,90.302-180.458,145.297-201.178
					c82.937-31.247,133.393-89.392,66.996-158.18c-75.125-77.831,45.987-184.359,187.202-215.518
					c138.189-30.491,163.727-293.732-141.425-255.2c-182.236,23.011-210.236,199.802-245.6,285.718s-169.016,52.05-157.878,174.039
					c9.514,104.2,61.413,194.273-14.13,240.182C2372.445,2780.161,2344.417,2849.399,2401.819,2962.283z"/>
				<g style="opacity:0.5;clip-path:url(#SVGID_00000013903550405162400550000016165225651664849334_);">
					<path style="fill:#BEB8F2;" d="M2470.032,3000.886l3.71,0.457c0.282-2.298,29.426-232.267,127.059-451.532
						c89.944-202.003,258.117-435.99,548.5-403.564l0.415-3.715c-129.265-14.436-245.472,21.806-345.394,107.717
						c-79.821,68.628-149.455,168.927-206.968,298.111C2499.514,2768.131,2470.317,2998.584,2470.032,3000.886z"/>
					<path style="fill:#BEB8F2;" d="M2764.119,2287.952l3.679,0.668c22.26-122.411,119.599-275.695,120.579-277.229l-3.149-2.015
						C2884.244,2010.917,2786.509,2164.823,2764.119,2287.952z"/>
					<path style="fill:#BEB8F2;" d="M2832.265,2232.535c143.527-37.176,244.465,33.885,245.466,34.608l2.185-3.032
						c-1.017-0.735-103.301-72.826-248.588-35.195L2832.265,2232.535z"/>
					<path style="fill:#BEB8F2;" d="M2544.783,2696.637c92.596-155.675,334.257-125.227,336.586-124.733l1.012-3.595
						c-2.24-0.701-247.393-30.64-340.81,126.418L2544.783,2696.637z"/>
					<path style="fill:#BEB8F2;" d="M2566.018,2625.029l3.722,0.368c11.387-115.021-82.456-226.034-83.406-227.143l-2.839,2.431
						C2484.435,2401.783,2577.249,2511.614,2566.018,2625.029z"/>
					<path style="fill:#BEB8F2;" d="M2479.125,2965.257c25.661-63.845,135.362-86.383,136.467-86.605l-0.73-3.665
						c-4.592,0.913-112.788,23.146-139.205,88.876L2479.125,2965.257z"/>
					<path style="fill:#BEB8F2;" d="M2485.295,2910.705l3.705,0.501c7.302-53.913-52.183-135.168-71.73-161.868
						c-2.762-3.774-5.146-7.031-5.457-7.695l-3.408,1.535c0.425,0.943,2.004,3.113,5.849,8.367
						C2433.58,2777.946,2492.395,2858.285,2485.295,2910.705z"/>
				</g>
			</g>
			<g>
				
					<linearGradient id="SVGID_00000041282036544112078850000001110012192396633273_" gradientUnits="userSpaceOnUse" x1="1737.155" y1="2283.959" x2="2110.1809" y2="2898.0557" gradientTransform="matrix(-0.9997 0.0227 0.0227 0.9997 4470.2871 119.3449)">
					<stop  offset="0" style="stop-color:#FFC444"/>
					<stop  offset="0.9964" style="stop-color:#F36F56"/>
				</linearGradient>
				<path style="fill:url(#SVGID_00000041282036544112078850000001110012192396633273_);" d="M2561.751,3005.08
					c-0.632,0.296-1.266,0.59-1.901,0.882c-37.58,17.303-81.706,29.575-133.583,32.883c-10.158-0.069-20.316-0.137-30.474-0.206
					c-9.151-23.866-13.581-48.203,17.06-58.397c47.585-15.832,46.169-100.331,32.091-129.809
					c-17.424-36.486-56.251-122.274,16.928-147.906c60.921-21.34,104.595-22.658,106.483-101.994s43.61-130.071,115.584-127.556
					c75.741,2.648,134.652-99.867,197.609-68.103c109.698,55.347,17.271,232.877-112.417,287.453
					c-129.687,54.576-52.964,99.563-47.444,164.273c7.537,88.342-112.671,73.091-143.208,108.82
					C2568.135,2977.522,2563.35,2991.389,2561.751,3005.08z"/>
				<g>
					<defs>
						<path id="SVGID_00000026145467584025495730000003229164852608079548_" d="M2566.728,3053.739l-164.745,3.739
							c-10.126-23.103-23.356-65.847,10.87-77.235c47.585-15.832,46.169-100.331,32.091-129.81
							c-17.424-36.485-56.251-122.273,16.928-147.906c60.921-21.339,104.595-22.658,106.483-101.994
							c1.888-79.336,43.61-130.071,115.584-127.555c75.741,2.647,134.653-99.867,197.609-68.103
							c109.698,55.347,17.271,232.877-112.416,287.453c-129.688,54.575-52.965,99.563-47.444,164.273
							c7.537,88.342-112.671,73.091-143.208,108.82C2554.539,2993.429,2560.284,3030.895,2566.728,3053.739z"/>
					</defs>
					<clipPath id="SVGID_00000121999712818308865730000010004746336797471104_">
						<use xlink:href="#SVGID_00000026145467584025495730000003229164852608079548_"  style="overflow:visible;"/>
					</clipPath>
					<g style="opacity:0.5;clip-path:url(#SVGID_00000121999712818308865730000010004746336797471104_);">
						<path style="fill:#FCFDFE;" d="M2488.569,3029.585l-3.519-0.609c44.602-257.224,213.824-491.542,441.628-611.511l1.663,3.16
							C2701.497,2540.088,2532.986,2773.429,2488.569,3029.585z"/>
						<path style="fill:#FCFDFE;" d="M2524.899,2891.428l-3.57,0.098c-2.779-102.559-92.745-180.124-93.654-180.895l2.312-2.722
							C2430.908,2708.689,2522.076,2787.252,2524.899,2891.428z"/>
						<path style="fill:#FCFDFE;" d="M2498.064,2982.49l-3.187-1.61c46.891-92.846,235.463-110.917,237.362-111.088l0.322,3.557
							C2730.682,2873.518,2544.063,2891.409,2498.064,2982.49z"/>
						<path style="fill:#FCFDFE;" d="M2645.655,2665.833l-3.315-1.331c30.775-76.561-21.77-191.665-22.303-192.818l3.239-1.502
							C2623.817,2471.349,2676.999,2587.857,2645.655,2665.833z"/>
						<path style="fill:#FCFDFE;" d="M2756.252,2542.312l-1.953-2.991c78.739-51.384,203.495-27.556,204.748-27.308l-0.691,3.504
							C2957.12,2515.271,2833.764,2491.727,2756.252,2542.312z"/>
					</g>
				</g>
			</g>
		</g>
		<g>
			
				<linearGradient id="SVGID_00000019663240761062546000000005025751143656908674_" gradientUnits="userSpaceOnUse" x1="1287.5632" y1="1985.7953" x2="2530.614" y2="1985.7953">
				<stop  offset="0" style="stop-color:#444B8C"/>
				<stop  offset="0.9964" style="stop-color:#26264F"/>
			</linearGradient>
			<path style="fill:url(#SVGID_00000019663240761062546000000005025751143656908674_);" d="M2475.952,929.099l-1140.381-97.691
				c-26.487-1.073-48.008,20.41-48.008,47.987v2213.947c0,27.577,21.521,48.518,48.008,46.779l1152.172-75.666
				c23.699-1.556,42.871-23.894,42.871-49.898V926.902C2530.614,900.899,2499.652,930.059,2475.952,929.099z"/>
			
				<linearGradient id="SVGID_00000007412778931230683210000014991334959723742081_" gradientUnits="userSpaceOnUse" x1="2213.4548" y1="863.3759" x2="2297.0928" y2="863.3759">
				<stop  offset="0" style="stop-color:#AB316D"/>
				<stop  offset="1" style="stop-color:#792D3D"/>
			</linearGradient>
			<path style="fill:url(#SVGID_00000007412778931230683210000014991334959723742081_);" d="M2213.455,873.299L2213.455,873.299
				c0-15.386,11.886-27.778,26.371-27.495l9.887-0.516l47.38,18.901v17.276L2213.455,873.299z"/>
			<g>
				<path style="fill:#D8DEE8;" d="M2518.49,878.082l-1152.172-46.674c-26.487-1.073-48.008,20.41-48.008,47.987v2213.947
					c0,27.577,21.521,48.518,48.008,46.779l1152.172-75.666c23.7-1.556,42.871-23.894,42.871-49.898V926.902
					C2561.361,900.899,2542.19,879.042,2518.49,878.082z"/>
				<g style="opacity:0.3;">
					<path style="fill:#D8DEE8;" d="M2047.254,2505.137c-19.578-252.253,127.211-356.577,71.259-585.006
						c-69.203-282.523-335.78-294.954-426.717-572.587c-34.864-106.438-48.64-267.269,51.141-500.879l-376.618-15.257
						c-26.487-1.073-48.008,20.41-48.008,47.987v2213.947c0,27.577,21.521,48.518,48.008,46.779l1027.947-67.508
						C2133.667,2860.792,2059.285,2660.161,2047.254,2505.137z"/>
				</g>
				
					<linearGradient id="SVGID_00000092439163206147548520000016447080729130790018_" gradientUnits="userSpaceOnUse" x1="2530.3352" y1="984.6884" x2="1645.0393" y2="2433.3525">
					<stop  offset="0" style="stop-color:#FFFFFF"/>
					<stop  offset="0.9964" style="stop-color:#EBEFF2"/>
				</linearGradient>
				<path style="fill:url(#SVGID_00000092439163206147548520000016447080729130790018_);" d="M2518.49,905.881l-1152.172-45.119
					c-10.856-0.425-19.697,8.419-19.697,19.715v2211.071c0,11.296,8.84,19.917,19.697,19.219l1152.172-74.11
					c9.728-0.626,17.634-9.822,17.634-20.501V925.937C2536.124,915.259,2528.218,906.262,2518.49,905.881z"/>
				<path style="fill:#D8DEE8;" d="M1958.083,1882.738c-215.715,1.739-394.485-186.024-394.485-418.588
					c0-232.563,178.77-416.211,394.485-409.504c211.403,6.572,380.299,194.224,380.299,418.425S2169.486,1881.034,1958.083,1882.738
					z"/>
				<path style="fill:#FFFFFF;" d="M2312.595,1472.773c0,209.333-157.24,380.085-354.511,381.41
					c-201.021,1.349-366.807-173.121-366.807-389.714c0-216.593,165.786-387.247,366.807-381.268
					C2155.355,1089.067,2312.595,1263.441,2312.595,1472.773z"/>
				
					<linearGradient id="SVGID_00000062872507139893264210000014915164477250010500_" gradientUnits="userSpaceOnUse" x1="1463.3672" y1="2084.0361" x2="2430.6919" y2="2084.0361">
					<stop  offset="0" style="stop-color:#AA80F9"/>
					<stop  offset="0.9964" style="stop-color:#6165D7"/>
				</linearGradient>
				<path style="opacity:0.74;fill:url(#SVGID_00000062872507139893264210000014915164477250010500_);" d="M2389.767,2030.6
					l-881.738,13.549c-24.644,0.379-44.662,21.62-44.662,47.443l0,0c0,25.823,20.018,46.363,44.662,45.877l881.738-17.359
					c22.622-0.445,40.925-20.804,40.925-45.472l0,0C2430.692,2049.969,2412.389,2030.252,2389.767,2030.6z"/>
				<path style="fill:#D8DEE8;" d="M2389.767,2206.824l-722.31,17.243c-24.281,0.58-44.005,21.829-44.005,47.461l0,0
					c0,25.631,19.724,45.854,44.005,45.17l722.31-20.363c22.622-0.638,40.925-21.152,40.925-45.821l0,0
					C2430.692,2225.844,2412.389,2206.284,2389.767,2206.824z"/>
				<g>
					<path style="fill:#B19AF3;" d="M1508.437,2321.181l-0.816,0.023c-24.418,0.688-44.254-18.768-44.254-43.458v-4.101
						c0-24.691,19.836-45.18,44.254-45.763l0.816-0.02c24.362-0.582,44.07,18.881,44.07,43.47v4.084
						C1552.507,2300.006,1532.799,2320.494,1508.437,2321.181z"/>
					<path style="fill:#D8DEE8;" d="M1508.029,2329.941c-29.224,0.836-53.057-23.4-53.057-54.027
						c0-30.627,23.834-56.104,53.057-56.79c29.144-0.684,52.797,23.557,52.797,54.034S1537.173,2329.108,1508.029,2329.941z
						 M1508.029,2236.621c-19.987,0.485-36.274,17.917-36.274,38.855s16.287,37.522,36.274,36.967
						c19.95-0.554,36.153-17.983,36.153-38.852C1544.182,2252.723,1527.979,2236.137,1508.029,2236.621z"/>
				</g>
				<path style="fill:#D8DEE8;" d="M2389.767,2366.265l-722.31,22.801c-24.281,0.767-44.005,22.167-44.005,47.8l0,0
					c0,25.631,19.724,45.703,44.005,44.832l722.31-25.922c22.622-0.812,40.925-21.467,40.925-46.136l0,0
					C2430.692,2384.971,2412.389,2365.551,2389.767,2366.265z"/>
				<g>
					<path style="fill:#B19AF3;" d="M1508.437,2487.404l-0.816,0.029c-24.418,0.876-44.254-18.427-44.254-43.118v-4.101
						c0-24.69,19.836-45.333,44.254-46.103l0.816-0.026c24.362-0.769,44.07,18.542,44.07,43.131v4.083
						C1552.507,2465.889,1532.799,2486.53,1508.437,2487.404z"/>
					<path style="fill:#D8DEE8;" d="M1508.029,2496.168c-29.224,1.061-53.057-22.992-53.057-53.619
						c0-30.627,23.834-56.288,53.057-57.198c29.144-0.908,52.797,23.151,52.797,53.628S1537.173,2495.11,1508.029,2496.168z
						 M1508.029,2402.848c-19.987,0.639-36.274,18.196-36.274,39.135s16.287,37.397,36.274,36.688
						c19.95-0.708,36.153-18.262,36.153-39.13S1527.979,2402.21,1508.029,2402.848z"/>
				</g>
				<path style="fill:#D8DEE8;" d="M2389.767,2525.706l-722.31,28.359c-24.281,0.954-44.005,22.506-44.005,48.138l0,0
					c0,25.632,19.724,45.551,44.005,44.493l722.31-31.48c22.622-0.986,40.925-21.782,40.925-46.451l0,0
					C2430.692,2544.097,2412.389,2524.818,2389.767,2525.706z"/>
				<path style="fill:#D8DEE8;" d="M1508.029,2662.394c-29.224,1.285-53.057-22.584-53.057-53.211
					c0-30.627,23.834-56.471,53.057-57.606c29.144-1.133,52.797,22.744,52.797,53.222
					C1560.827,2635.276,1537.173,2661.112,1508.029,2662.394z M1508.029,2569.074c-19.987,0.793-36.274,18.475-36.274,39.414
					c0,20.939,16.287,37.272,36.274,36.409c19.95-0.862,36.153-18.54,36.153-39.409
					C1544.182,2584.619,1527.979,2568.283,1508.029,2569.074z"/>
				<path style="fill:#D8DEE8;" d="M2389.767,2685.147l-722.31,33.918c-24.281,1.14-44.005,22.845-44.005,48.477l0,0
					c0,25.631,19.724,45.399,44.005,44.154l722.31-37.038c22.622-1.16,40.925-22.097,40.925-46.766l0,0
					C2430.692,2703.224,2412.389,2684.085,2389.767,2685.147z"/>
				<g>
					<path style="fill:#B19AF3;" d="M1508.437,2819.851l-0.816,0.042c-24.418,1.252-44.254-17.747-44.254-42.437v-4.101
						c0-24.691,19.836-45.637,44.254-46.784l0.816-0.039c24.362-1.144,44.07,17.864,44.07,42.453v4.083
						C1552.507,2797.658,1532.799,2818.601,1508.437,2819.851z"/>
					<path style="fill:#D8DEE8;" d="M1508.029,2828.62c-29.224,1.51-53.057-22.176-53.057-52.802
						c0-30.627,23.834-56.655,53.057-58.015c29.144-1.356,52.797,22.338,52.797,52.816
						C1560.827,2801.096,1537.173,2827.114,1508.029,2828.62z M1508.029,2735.3c-19.987,0.947-36.274,18.754-36.274,39.693
						c0,20.938,16.287,37.146,36.274,36.13c19.95-1.015,36.153-18.819,36.153-39.687
						C1544.182,2750.567,1527.979,2734.355,1508.029,2735.3z"/>
				</g>
				<g>
					<defs>
						<path id="SVGID_00000039833128139994897240000001965612583911356343_" d="M2286.742,1472.476
							c0,194.067-145.874,352.172-328.659,353.152c-186,0.997-339.2-160.55-339.2-360.842s153.201-358.312,339.2-353.031
							C2140.868,1116.944,2286.742,1278.408,2286.742,1472.476z"/>
					</defs>
					<clipPath id="SVGID_00000081649764966017386070000012515413672900040866_">
						<use xlink:href="#SVGID_00000039833128139994897240000001965612583911356343_"  style="overflow:visible;"/>
					</clipPath>
					<g style="clip-path:url(#SVGID_00000081649764966017386070000012515413672900040866_);">
						
							<linearGradient id="SVGID_00000043450117573373840560000008996654407796573098_" gradientUnits="userSpaceOnUse" x1="2356.5352" y1="1035.0944" x2="1597.8075" y2="1943.4884">
							<stop  offset="0" style="stop-color:#AB316D"/>
							<stop  offset="1" style="stop-color:#792D3D"/>
						</linearGradient>
						<path style="fill:url(#SVGID_00000043450117573373840560000008996654407796573098_);" d="M2022.048,1189.622
							c69.619,42.595,89.133,116.885,93.577,134.914c30.734,124.712-63.965,188.027-23.621,276.188
							c33.068,72.258,126.587,95.068,122.736,102.987c-3.441,7.077-70.193-27.46-134.645-43.11
							c-210.176-51.036-392.841,99.509-418.727,61.865c-18.331-26.657,88.745-79.642,110.839-203.507
							c20.917-117.266-55.462-179.601-9.085-267.103c30.918-58.336,90.651-79.279,100.845-82.675
							C1943.074,1142.829,2011.349,1183.076,2022.048,1189.622z"/>
						
							<linearGradient id="SVGID_00000001651086614689374080000010307384854989749148_" gradientUnits="userSpaceOnUse" x1="2004.6145" y1="1485.9348" x2="1928.4102" y2="1837.3221">
							<stop  offset="0" style="stop-color:#AA80F9"/>
							<stop  offset="0.9964" style="stop-color:#6165D7"/>
						</linearGradient>
						<path style="fill:url(#SVGID_00000001651086614689374080000010307384854989749148_);" d="M1591.276,1729.128
							c0,0,322.224-200.559,721.319-0.567c0,0-50.881,171.724-354.511,183.03
							C1645.478,1923.231,1591.276,1729.128,1591.276,1729.128z"/>
						
							<linearGradient id="SVGID_00000031205812015085350520000007784818826913708201_" gradientUnits="userSpaceOnUse" x1="1947.994" y1="1500.6517" x2="1949.4541" y2="1783.9459">
							<stop  offset="0.0036" style="stop-color:#F36F56"/>
							<stop  offset="1" style="stop-color:#FFC444"/>
						</linearGradient>
						<path style="fill:url(#SVGID_00000031205812015085350520000007784818826913708201_);" d="M1900.929,1468.034l-12.085,95.773
							c-4.123,32.678-25.262,60.006-54.664,70.599l-98.232,35.39c0,0,188.054,96.468,425.834-0.078l-108.438-40.218
							c-30.771-12.324-51.739-43.333-53.078-78.577l-3.108-81.78L1900.929,1468.034z"/>
						
							<linearGradient id="SVGID_00000173157431544304962340000005470542353116444554_" gradientUnits="userSpaceOnUse" x1="2240.9294" y1="982.9049" x2="1577.7147" y2="1776.9453">
							<stop  offset="0" style="stop-color:#AB316D"/>
							<stop  offset="1" style="stop-color:#792D3D"/>
						</linearGradient>
						<path style="fill:url(#SVGID_00000173157431544304962340000005470542353116444554_);" d="M1913.618,1532.862
							c-49.409-14.113-75.883-57.157-91.583-82.68c-26.313-42.78-62.625-131.323-28.442-181.645
							c1.918-2.824,4.136-4.211,8.091-9.178c23.234-29.175,20.549-53.073,29.577-68.375
							c21.793-36.936,110.454-21.433,115.836-20.442c94.735,17.458,135.818,104.233,136.632,106.17
							c0.741,1.759,1.479,3.571,1.479,3.571c5.741,14.073,38.643,94.716-2.639,170.267
							C2049.471,1511.125,1978.135,1551.291,1913.618,1532.862z"/>
						
							<linearGradient id="SVGID_00000124149463338319946520000003753341883308929698_" gradientUnits="userSpaceOnUse" x1="1988.4362" y1="1089.3932" x2="1922.856" y2="1531.3448">
							<stop  offset="0.0036" style="stop-color:#F36F56"/>
							<stop  offset="1" style="stop-color:#FFC444"/>
						</linearGradient>
						<path style="fill:url(#SVGID_00000124149463338319946520000003753341883308929698_);" d="M2047.595,1385.162
							c0,80.874-45.746,167.415-102.452,166.986c-57.012-0.431-103.454-88.519-103.454-170.183
							c0-81.665,46.442-125.336,103.454-124.112C2001.85,1259.07,2047.595,1304.287,2047.595,1385.162z"/>
						
							<linearGradient id="SVGID_00000075858927357609848240000015637539821117185946_" gradientUnits="userSpaceOnUse" x1="2265.2529" y1="1003.2219" x2="1602.0386" y2="1797.2621">
							<stop  offset="0" style="stop-color:#AB316D"/>
							<stop  offset="1" style="stop-color:#792D3D"/>
						</linearGradient>
						<path style="fill:url(#SVGID_00000075858927357609848240000015637539821117185946_);" d="M1838.255,1434.588
							c9.828-0.442-4.359-85.429,33.71-108.51c25.276-15.325,69.148-0.6,93.823,27.396c38.899,44.133,17.134,106.707,46.601,120.413
							c18.708,8.702,43.685-9.043,55.652-22.097c37.375-40.768,32.281-128.011-11.901-177.788
							c-35.213-39.672-82.994-41.8-94.356-41.934c-65.024-0.766-124.714,49.867-138.396,110.368
							C1812.874,1388.93,1830.987,1434.915,1838.255,1434.588z"/>
					</g>
				</g>
				<path style="opacity:0.35;fill:#FFFFFF;" d="M2047.254,2505.137c-19.578-252.253,127.211-356.577,71.259-585.006
					c-69.203-282.523-335.78-294.954-426.717-572.587c-33.424-102.046-47.469-254.102,39.426-472.492l-364.904-14.29
					c-10.856-0.425-19.697,8.419-19.697,19.715v2211.071c0,11.296,8.84,19.917,19.697,19.219l996.867-64.121
					C2127.639,2844.303,2058.787,2653.744,2047.254,2505.137z"/>
			</g>
			<path style="fill:#D8DEE8;" d="M2468.38,1187.401l-105.47-83.607l-106.554,78.51V918.479c0-20.57-9.265-40.347-25.124-53.605
				l-0.821-0.686l201.091,7.896c20.383,0.8,36.877,18.523,36.877,39.585V1187.401z"/>
			
				<linearGradient id="SVGID_00000173855557097030439600000011579316367431417729_" gradientUnits="userSpaceOnUse" x1="2512.166" y1="762.0658" x2="2192.3484" y2="1328.8961">
				<stop  offset="0" style="stop-color:#FF9085"/>
				<stop  offset="1" style="stop-color:#FB6FBB"/>
			</linearGradient>
			<path style="fill:url(#SVGID_00000173855557097030439600000011579316367431417729_);" d="M2487.681,1187.401l-105.47-88.497
				l-106.554,83.101V902.753c0-21.773-9.264-42.706-25.123-56.74l-0.821-0.726l201.091,8.357
				c20.383,0.847,36.877,19.606,36.877,41.901V1187.401z"/>
		</g>
	</g>
</g>
</svg>
